<svg width="44" height="65" viewBox="0 0 44 65" fill="none" xmlns="http://www.w3.org/2000/svg">
<path d="M42.314 8.86628H37.3399V2.53906H39.0907C39.7379 2.53906 40.2626 1.97069 40.2626 1.26953C40.2626 0.568369 39.7379 0 39.0907 0H4.90967C4.26244 0 3.73779 0.568369 3.73779 1.26953C3.73779 1.97069 4.26244 2.53906 4.90967 2.53906H6.66045V8.86628H1.68631C1.03908 8.86628 0.514435 9.43465 0.514435 10.1358V18.8291C0.514435 23.8098 1.86033 24.4934 5.17721 25.689C5.66998 25.8666 6.22838 26.0678 6.84174 26.3093C6.86248 26.3174 6.88334 26.3249 6.9042 26.3317C7.94904 32.6018 12.2526 37.66 17.8401 39.3674V44.1168H9.19357C8.54635 44.1168 8.0217 44.6852 8.0217 45.3864V50.2468H4.9365C4.28928 50.2468 3.76463 50.8151 3.76463 51.5163V63.7305C3.76463 64.4316 4.28928 65 4.9365 65H39.0638C39.7111 65 40.2357 64.4316 40.2357 63.7305V51.5163C40.2357 50.8151 39.7111 50.2468 39.0638 50.2468H35.9786V45.3864C35.9786 44.6852 35.454 44.1168 34.8068 44.1168H26.1603V39.3674C31.7478 37.66 36.0514 32.6018 37.0963 26.3317C37.1171 26.3249 37.138 26.3175 37.1587 26.3093C37.7721 26.0678 38.3306 25.8666 38.8233 25.689C42.14 24.4934 43.486 23.8098 43.486 18.8291V10.1358C43.4859 9.43465 42.9613 8.86628 42.314 8.86628ZM5.91701 23.2798C4.62807 22.8151 3.77658 22.5083 3.39279 22.0261C3.01803 21.5552 2.85807 20.599 2.85807 18.8291V11.4053H6.66033V23.3722C6.66033 23.4316 6.66068 23.4909 6.66127 23.5502C6.39877 23.4534 6.15068 23.3639 5.91701 23.2798ZM13.4778 62.4609V58.2582H30.5224V62.4609H13.4778ZM37.892 62.4609H32.8661V56.9886C32.8661 56.2875 32.3415 55.7191 31.6943 55.7191H12.306C11.6587 55.7191 11.1341 56.2875 11.1341 56.9886V62.4609H6.10838V52.7858H37.892V62.4609ZM33.6349 50.2468H10.3654V46.6559H33.6349V50.2468ZM23.8166 44.1168H20.1838V39.8724C20.7795 39.9488 21.3856 39.9883 22.0002 39.9883C22.6147 39.9883 23.2208 39.949 23.8166 39.8724V44.1168ZM34.9961 23.3722C34.9961 31.1342 29.1661 37.4491 22.0002 37.4491C14.8343 37.4491 9.0042 31.1342 9.0042 23.3722V2.53906H34.9963V23.3722H34.9961ZM41.1422 18.8291C41.1422 20.599 40.9823 21.5551 40.6074 22.0261C40.2238 22.5083 39.3722 22.8151 38.0832 23.2798C37.8495 23.3639 37.6015 23.4534 37.3388 23.5502C37.3394 23.4909 37.3398 23.4316 37.3398 23.3722V11.4053H41.142V18.8291H41.1422Z" fill="black"/>
</svg>
