<svg width="65" height="65" viewBox="0 0 65 65" fill="none" xmlns="http://www.w3.org/2000/svg">
<path d="M2.94871 28.4046H8.4013C8.7238 29.5675 9.18836 30.6863 9.78575 31.7348L5.92648 35.5925C5.74219 35.7768 5.63853 36.0268 5.63853 36.2878C5.63853 36.5489 5.74219 36.7988 5.92648 36.9831L10.096 41.1538C10.4799 41.5369 11.1019 41.5369 11.4858 41.1538L15.3455 37.2937C16.394 37.8907 17.5116 38.3557 18.6745 38.6778V44.1304C18.6745 44.6733 19.1145 45.1133 19.6574 45.1133H25.5546C26.0974 45.1133 26.5374 44.6733 26.5374 44.1304V38.6778C27.7003 38.3557 28.818 37.8907 29.8665 37.2937L33.7261 41.1538C34.1162 41.5223 34.7263 41.5223 35.116 41.1538L39.2862 36.9831C39.4705 36.7988 39.5742 36.5489 39.5742 36.2878C39.5742 36.0268 39.4705 35.7768 39.2862 35.5925L35.4262 31.7348C36.0236 30.6863 36.4881 29.5675 36.8106 28.4046H42.2632C42.8061 28.4046 43.2461 27.9646 43.2461 27.4217V21.5245C43.2461 20.982 42.8061 20.5417 42.2632 20.5417H36.8106C36.4881 19.3791 36.0236 18.2604 35.4262 17.2118L39.2855 13.3541C39.4697 13.1698 39.5734 12.9199 39.5734 12.6588C39.5734 12.3977 39.4697 12.1478 39.2855 11.9635L35.116 7.79287C34.732 7.40932 34.1101 7.40932 33.7261 7.79287L29.8665 11.6529C28.818 11.0563 27.7 10.5913 26.5374 10.2688V4.81587C26.5374 4.27338 26.0974 3.83301 25.5546 3.83301H19.6574C19.1145 3.83301 18.6745 4.27338 18.6745 4.81587V10.2688C17.512 10.5913 16.394 11.0563 15.3455 11.6529L11.4858 7.79287C11.0957 7.4243 10.4857 7.4243 10.096 7.79287L5.92571 11.9635C5.74143 12.1478 5.63776 12.3977 5.63776 12.6588C5.63776 12.9199 5.74143 13.1698 5.92571 13.3541L9.78575 17.2118C9.18836 18.2604 8.7238 19.3791 8.4013 20.5417H2.94871C2.40584 20.5417 1.96585 20.982 1.96585 21.5245V27.4217C1.96585 27.9646 2.40584 28.4046 2.94871 28.4046ZM3.93158 22.5074H9.17031C9.63218 22.5074 10.0319 22.1861 10.1305 21.7349C10.453 20.2629 11.0362 18.8601 11.8525 17.5931C12.1016 17.2046 12.0463 16.6943 11.7196 16.3676L8.01046 12.6584L10.7909 9.87761L14.4993 13.5868C14.826 13.9143 15.3366 13.9696 15.7259 13.72C16.9933 12.9041 18.3958 12.321 19.8678 11.9981C20.3185 11.899 20.6402 11.4993 20.6402 11.0375V5.79873H24.5717V11.0375C24.5717 11.4993 24.8934 11.899 25.3442 11.9981C26.8162 12.321 28.2187 12.9041 29.486 13.72C29.8753 13.9696 30.3859 13.9143 30.7127 13.5868L34.4211 9.87761L37.2007 12.6584L33.4923 16.3664C33.1648 16.6935 33.1099 17.2042 33.3595 17.5931C34.1757 18.8608 34.7581 20.2633 35.0803 21.7357C35.1793 22.1868 35.579 22.5086 36.0405 22.5086H41.2804V26.44H36.0405C35.579 26.44 35.1793 26.7614 35.0803 27.2125C34.7581 28.6845 34.1753 30.087 33.3595 31.3532C33.1103 31.7421 33.1656 32.2523 33.4923 32.5791L37.2015 36.2874L34.4211 39.069L30.7127 35.3595C30.3859 35.0324 29.8753 34.9771 29.486 35.2266C28.2194 36.0429 26.8173 36.6261 25.3453 36.9486C24.8938 37.0469 24.5717 37.4469 24.5717 37.9088V43.1475H20.6402V37.9088C20.6402 37.4469 20.3181 37.0469 19.8666 36.9486C18.3946 36.6261 16.9925 36.0429 15.7259 35.2266C15.3366 34.9771 14.826 35.0324 14.4993 35.3595L10.7909 39.069L8.01122 36.2882L11.7196 32.5798C12.0471 32.2531 12.102 31.7425 11.8525 31.3532C11.0362 30.0858 10.453 28.6829 10.1305 27.2106C10.0315 26.7594 9.63218 26.4389 9.17031 26.4389H3.93158V22.5074Z" fill="black"/>
<path d="M22.6059 32.3359C26.9486 32.3359 30.4688 28.8161 30.4688 24.473C30.4688 20.1304 26.9486 16.6101 22.6059 16.6101C18.2633 16.6101 14.743 20.1304 14.743 24.473C14.7476 28.8134 18.2656 32.3313 22.6059 32.3359ZM22.6059 18.5758C25.8624 18.5758 28.5031 21.2165 28.5031 24.473C28.5031 27.7299 25.8624 30.3702 22.6059 30.3702C19.3494 30.3702 16.7087 27.7299 16.7087 24.473C16.7122 21.2173 19.3502 18.5793 22.6059 18.5758Z" fill="black"/>
<path d="M22.6059 35.2846C28.5768 35.2846 33.4174 30.4444 33.4174 24.4731C33.4174 18.5022 28.5768 13.6616 22.6059 13.6616C16.635 13.6616 11.7944 18.5022 11.7944 24.4731C11.8017 30.4413 16.6377 35.2777 22.6059 35.2846ZM22.6059 15.6273C27.4915 15.6273 31.4517 19.5876 31.4517 24.4731C31.4517 29.3586 27.4915 33.3189 22.6059 33.3189C17.7204 33.3189 13.7602 29.3586 13.7602 24.4731C13.7655 19.5903 17.7227 15.6327 22.6059 15.6273Z" fill="black"/>
<path d="M57.989 49.0448V41.1819C57.989 40.6394 57.549 40.199 57.0062 40.199H55.0404V32.3361C55.0404 31.7936 54.6005 31.3533 54.0576 31.3533H45.2118C44.6689 31.3533 44.229 31.7936 44.229 32.3361V40.199H39.3146C38.7718 40.199 38.3318 40.6394 38.3318 41.1819V49.0448H6.88017C4.16731 49.0482 1.96931 51.2462 1.96585 53.9591V55.9248C1.96931 58.6381 4.16731 60.8361 6.88017 60.8391H57.989C60.7019 60.8361 62.8999 58.6381 62.9033 55.9248V53.9591C62.8999 51.2462 60.7019 49.0482 57.989 49.0448ZM56.0233 49.0448H49.1433V42.1648H56.0233V49.0448ZM46.1947 33.319H53.0747V40.199H46.1947V33.319ZM40.2975 42.1648H47.1775V49.0448H40.2975V42.1648ZM60.9376 55.9248C60.9376 57.5535 59.6173 58.8734 57.989 58.8734H6.88017C5.25191 58.8734 3.93158 57.5535 3.93158 55.9248V53.9591C3.93158 52.3309 5.25191 51.0105 6.88017 51.0105H57.989C59.6173 51.0105 60.9376 52.3309 60.9376 53.9591V55.9248Z" fill="black"/>
<path d="M32.4346 51.9934C30.8063 51.9934 29.486 53.3137 29.486 54.942C29.486 56.5706 30.8063 57.8906 32.4346 57.8906C34.0628 57.8906 35.3832 56.5706 35.3832 54.942C35.3832 53.3137 34.0628 51.9934 32.4346 51.9934ZM32.4346 55.9248C31.8917 55.9248 31.4517 55.4849 31.4517 54.942C31.4517 54.3995 31.8917 53.9591 32.4346 53.9591C32.9775 53.9591 33.4175 54.3995 33.4175 54.942C33.4175 55.4849 32.9775 55.9248 32.4346 55.9248Z" fill="black"/>
<path d="M22.6057 51.9934C20.9774 51.9934 19.6571 53.3137 19.6571 54.942C19.6571 56.5706 20.9774 57.8906 22.6057 57.8906C24.2339 57.8906 25.5543 56.5706 25.5543 54.942C25.5543 53.3137 24.2339 51.9934 22.6057 51.9934ZM22.6057 55.9248C22.0628 55.9248 21.6228 55.4849 21.6228 54.942C21.6228 54.3995 22.0628 53.9591 22.6057 53.9591C23.1486 53.9591 23.5885 54.3995 23.5885 54.942C23.5885 55.4849 23.1486 55.9248 22.6057 55.9248Z" fill="black"/>
<path d="M42.2632 51.9934C40.6349 51.9934 39.3146 53.3137 39.3146 54.942C39.3146 56.5706 40.6349 57.8906 42.2632 57.8906C43.8914 57.8906 45.2118 56.5706 45.2118 54.942C45.2118 53.3137 43.8914 51.9934 42.2632 51.9934ZM42.2632 55.9248C41.7203 55.9248 41.2803 55.4849 41.2803 54.942C41.2803 54.3995 41.7203 53.9591 42.2632 53.9591C42.8061 53.9591 43.246 54.3995 43.246 54.942C43.246 55.4849 42.8061 55.9248 42.2632 55.9248Z" fill="black"/>
<path d="M12.7771 51.9934C11.1488 51.9934 9.82849 53.3137 9.82849 54.942C9.82849 56.5706 11.1488 57.8906 12.7771 57.8906C14.4053 57.8906 15.7257 56.5706 15.7257 54.942C15.7257 53.3137 14.4053 51.9934 12.7771 51.9934ZM12.7771 55.9248C12.2342 55.9248 11.7942 55.4849 11.7942 54.942C11.7942 54.3995 12.2342 53.9591 12.7771 53.9591C13.32 53.9591 13.7599 54.3995 13.7599 54.942C13.7599 55.4849 13.32 55.9248 12.7771 55.9248Z" fill="black"/>
<path d="M52.0917 51.9934C50.4634 51.9934 49.1431 53.3137 49.1431 54.942C49.1431 56.5706 50.4634 57.8906 52.0917 57.8906C53.7199 57.8906 55.0403 56.5706 55.0403 54.942C55.0403 53.3137 53.7199 51.9934 52.0917 51.9934ZM52.0917 55.9248C51.5488 55.9248 51.1088 55.4849 51.1088 54.942C51.1088 54.3995 51.5488 53.9591 52.0917 53.9591C52.6345 53.9591 53.0745 54.3995 53.0745 54.942C53.0745 55.4849 52.6345 55.9248 52.0917 55.9248Z" fill="black"/>
</svg>
