<svg width="65" height="53" viewBox="0 0 65 53" fill="none" xmlns="http://www.w3.org/2000/svg">
<path d="M64.7612 51.0528L50.3721 31.8673C49.9153 31.2963 49.0017 31.2963 48.5449 31.8673L44.5479 37.2347L40.8935 42.1452L25.134 21.0184V17.1356H38.6095C39.0663 17.1356 39.5231 16.793 39.6373 16.4504C39.7515 15.9936 39.6373 15.5368 39.2947 15.1942L33.4706 9.82682L39.2947 4.45945C39.6373 4.11685 39.7515 3.66005 39.6373 3.20326C39.4089 2.86066 39.0663 2.51806 38.4953 2.51806H25.134V1.26187C25.134 0.57667 24.6772 0.119873 23.992 0.119873C23.3068 0.119873 22.85 0.57667 22.85 1.26187V3.66005V15.9936V21.0184L0.238559 51.0528C0.01016 51.3954 -0.104039 51.8522 0.124359 52.1948C0.352758 52.5374 0.695356 52.88 1.15215 52.88H46.7177H63.8476C64.3044 52.88 64.647 52.6516 64.8754 52.1948C65.1038 51.738 64.9896 51.3954 64.7612 51.0528ZM25.134 4.80205H35.6404L31.0724 9.02742C30.844 9.25582 30.7298 9.59842 30.7298 9.82682C30.7298 10.0552 30.844 10.512 31.0724 10.6262L35.6404 14.8516H25.134V4.80205ZM49.4585 34.4939L52.5419 38.7193L51.6283 40.4322L50.8289 39.1761C50.6005 38.8335 50.2579 38.7193 49.9153 38.7193C49.5727 38.7193 49.2301 38.8335 49.0017 39.1761L48.0881 40.2038L46.9461 37.9199L49.4585 34.4939ZM23.992 23.3023L29.4736 30.6111L26.9612 34.7223L24.9056 31.7531C24.6772 31.4105 24.3346 31.2963 23.992 31.2963C23.6494 31.2963 23.3068 31.4105 23.0784 31.7531L21.137 34.1513L18.9673 29.9259L23.992 23.3023ZM3.43614 50.596L17.3685 31.9815L19.7667 36.7779C19.9951 37.1205 20.3376 37.3489 20.6802 37.3489C21.0228 37.3489 21.4796 37.2347 21.708 36.8921L23.7636 34.2655L25.9334 37.4631C26.1618 37.8057 26.5044 37.9199 26.847 37.9199C27.1896 37.9199 27.5322 37.6915 27.7606 37.3489L30.7298 32.5525L44.2053 50.596H3.43614ZM47.2887 50.4818V50.596L42.3781 43.9724L45.4615 39.8613L47.0603 42.602C47.2887 42.9446 47.6313 43.173 47.9739 43.173C48.3165 43.173 48.6591 43.0588 49.0017 42.7162L49.9153 41.5742L50.9431 43.0588C51.1715 43.4014 51.5141 43.5156 51.8567 43.5156C51.8567 43.5156 51.8567 43.5156 51.9709 43.5156C52.3135 43.5156 52.7703 43.2872 52.8845 42.9446L54.1407 40.5464L61.5636 50.4818H47.2887Z" fill="black"/>
</svg>
