<svg width="65" height="65" viewBox="0 0 65 65" fill="none" xmlns="http://www.w3.org/2000/svg">
<g clip-path="url(#clip0)">
<path d="M32.4999 11.3042C27.0456 11.3042 22.6086 15.7411 22.6086 21.1955C22.6086 26.65 27.0455 31.0869 32.4999 31.0869C37.9543 31.0869 42.3912 26.6498 42.3912 21.1955C42.3912 15.7412 37.9543 11.3042 32.4999 11.3042ZM32.4999 28.2607C28.6056 28.2607 25.4348 25.0898 25.4348 21.1955C25.4348 17.3012 28.6056 14.1304 32.4999 14.1304C36.3942 14.1304 39.5651 17.3012 39.5651 21.1955C39.5651 25.0898 36.3943 28.2607 32.4999 28.2607Z" fill="black"/>
<path d="M52.2826 22.6086C48.3883 22.6086 45.2175 25.7795 45.2175 29.6738C45.2175 33.5681 48.3883 36.739 52.2826 36.739C56.1769 36.739 59.3478 33.5681 59.3478 29.6738C59.3478 25.7795 56.1769 22.6086 52.2826 22.6086ZM52.2826 33.9129C49.9454 33.9129 48.0435 32.011 48.0435 29.6738C48.0435 27.3366 49.9454 25.4347 52.2826 25.4347C54.6199 25.4347 56.5218 27.3366 56.5218 29.6738C56.5218 32.011 54.6197 33.9129 52.2826 33.9129Z" fill="black"/>
<path d="M12.918 22.6086C9.02074 22.6086 5.85278 25.7795 5.85278 29.6738C5.85278 33.5681 9.02365 36.739 12.918 36.739C16.8123 36.739 19.9831 33.5681 19.9831 29.6738C19.9831 25.7795 16.815 22.6086 12.918 22.6086ZM12.918 33.9129C10.5807 33.9129 8.67883 32.011 8.67883 29.6738C8.67883 27.3366 10.5807 25.4347 12.918 25.4347C15.2552 25.4347 17.1571 27.3366 17.1571 29.6738C17.1571 32.011 15.255 33.9129 12.918 33.9129Z" fill="black"/>
<path d="M32.4999 33.9131C22.3712 33.9131 14.1303 42.1539 14.1303 52.2827C14.1303 53.0627 14.7634 53.6958 15.5434 53.6958C16.3234 53.6958 16.9565 53.0627 16.9565 52.2827C16.9565 43.7112 23.9284 36.7393 32.4999 36.7393C41.0714 36.7393 48.0433 43.7112 48.0433 52.2827C48.0433 53.0627 48.6764 53.6958 49.4564 53.6958C50.2364 53.6958 50.8695 53.0627 50.8695 52.2827C50.8695 42.1539 42.6286 33.9131 32.4999 33.9131Z" fill="black"/>
<path d="M52.2827 39.5652C49.9569 39.5652 47.679 40.2011 45.6951 41.4022C45.031 41.8091 44.8162 42.6767 45.2203 43.3437C45.6301 44.0107 46.4949 44.2227 47.1619 43.8185C48.702 42.883 50.4712 42.3912 52.2827 42.3912C57.737 42.3912 62.1741 46.8281 62.1741 52.2826C62.1741 53.0626 62.8072 53.6957 63.5872 53.6957C64.3672 53.6957 65.0002 53.0626 65.0002 52.2826C65.0001 45.2711 59.2942 39.5652 52.2827 39.5652Z" fill="black"/>
<path d="M19.3022 41.3993C17.3211 40.2011 15.0433 39.5652 12.7174 39.5652C5.70587 39.5652 0 45.2711 0 52.2826C0 53.0626 0.633087 53.6957 1.41309 53.6957C2.19309 53.6957 2.82617 53.0626 2.82617 52.2826C2.82604 46.8281 7.26308 42.3912 12.7174 42.3912C14.5289 42.3912 16.298 42.883 17.8355 43.8156C18.4996 44.2197 19.37 44.0078 19.777 43.3408C20.1839 42.6738 19.9691 41.8062 19.3022 41.3993Z" fill="black"/>
</g>
<defs>
<clipPath id="clip0">
<rect width="65" height="65" fill="white"/>
</clipPath>
</defs>
</svg>
