<svg width="19" height="14" viewBox="0 0 19 14" fill="none" xmlns="http://www.w3.org/2000/svg">
<path d="M8.47996 13.5905C9.59843 13.5161 10.6424 12.9723 11.3446 12.0985C11.3645 12.0738 11.3834 12.0485 11.4017 12.0226L17.8846 2.86606C18.3832 2.16172 18.2166 1.18637 17.5122 0.687716C16.8079 0.189059 15.8329 0.35599 15.3342 1.06034L8.88523 10.1689C8.67527 10.4106 8.41282 10.4631 8.27213 10.4726C8.12626 10.482 7.84427 10.4634 7.59769 10.2284C7.58976 10.2211 7.58182 10.2138 7.57389 10.2065L3.44425 6.43448C2.80704 5.85251 1.81888 5.89707 1.23691 6.53427C0.654944 7.17148 0.699805 8.15994 1.33671 8.74191L5.45597 12.5041C6.20182 13.2079 7.19425 13.5994 8.21476 13.5994C8.30326 13.5994 8.39176 13.5963 8.47996 13.5905Z" fill="white"/>
</svg>
