<svg width="166" height="18" viewBox="0 0 166 18" fill="none" xmlns="http://www.w3.org/2000/svg">
<path d="M14.9854 0H16.9648C19.2489 0.249105 21.6027 0.335891 23.7587 1.21022C24.8222 1.62483 25.8127 2.20345 26.7027 2.91377C26.1337 4.18827 25.5647 5.46432 24.9665 6.72593C21.6075 6.71786 18.2487 6.72757 14.8897 6.7211C15.2642 5.8629 15.6776 5.01914 16.0147 4.14481C15.2351 3.95844 14.0468 3.78323 13.648 4.67682C12.27 7.69342 10.8888 10.7117 9.51419 13.7314C10.3183 14.077 11.6444 14.0931 11.9637 13.1031C12.4014 12.1517 12.8374 11.1986 13.2832 10.2504C15.9856 10.2472 18.688 10.2504 21.3887 10.2487C22.0242 10.252 22.6645 10.2151 23.2967 10.2922C22.4668 12.2159 21.5444 14.0979 20.7208 16.0249C15.83 17.3251 10.7414 18.1238 5.66738 17.7927C4.02675 17.6642 2.31007 17.3861 0.937013 16.4267C0.497663 16.1374 0.192862 15.6954 0 15.2149V14.5318C0.226958 13.86 0.552806 13.2268 0.846211 12.5823C2.0134 10.035 3.18711 7.49096 4.35099 4.94201C4.66553 4.26699 4.92489 3.54214 5.44851 2.99249C6.06777 2.34007 6.86697 1.88678 7.684 1.5252C9.11054 0.914463 10.6246 0.520715 12.1598 0.311791C13.0984 0.175212 14.05 0.165554 14.9854 0ZM151.144 0H151.679C152.299 0.0466047 152.944 0.453245 153.007 1.11054C153.133 2.52485 152.205 3.73179 151.29 4.71058C150.734 5.33895 149.825 5.27143 149.107 5.58805C149.27 5.71825 149.601 5.97861 149.766 6.11036C149.28 6.01073 148.709 6.00435 148.343 5.6234C147.889 5.16059 147.865 4.44376 148.007 3.84751C148.207 2.9684 148.552 2.11343 149.04 1.35163C149.515 0.623583 150.366 0.305368 151.144 0ZM150.77 0.760208C150.848 0.830912 151.003 0.973961 151.081 1.04466C151.002 1.11054 150.841 1.24393 150.76 1.30985C150.942 1.42876 151.115 1.65699 151.366 1.59107C151.525 1.43682 151.507 1.20056 151.362 1.04949C151.417 0.920932 151.525 0.660575 151.58 0.531968C151.306 0.599483 151.036 0.675016 150.77 0.760208ZM152.042 0.554473L151.877 0.867859C152.08 0.90804 152.222 1.02539 152.305 1.22307C152.192 1.20539 151.965 1.17163 151.851 1.15396C151.768 1.42716 151.916 1.66501 152.023 1.89644C152.188 1.61358 152.383 1.34361 152.576 1.07678C152.396 0.903211 152.219 0.728045 152.042 0.554473ZM149.671 1.39181C149.826 1.44324 150.138 1.5477 150.292 1.59914C149.915 1.6329 149.47 1.5718 149.269 1.95908C149.449 2.07325 149.922 1.90769 149.92 2.21953C149.575 2.26773 149.168 2.17771 148.969 2.5393C149.347 2.59237 149.723 2.71127 149.932 3.05359C150.22 2.35128 150.374 1.60716 150.446 0.851823C150.181 1.02699 149.925 1.20698 149.671 1.39181ZM150.744 1.74378C150.711 1.94788 150.686 2.15197 150.664 2.35611C150.502 2.58918 150.438 2.85592 150.485 3.13395C150.58 3.1452 150.77 3.16611 150.864 3.17732C150.937 3.00858 151.011 2.84147 151.089 2.67428C151.065 2.63091 151.016 2.54412 150.994 2.50235C151.118 2.287 151.486 2.04915 151.178 1.82091C151.07 1.80164 150.853 1.76305 150.744 1.74378ZM151.994 2.05234C151.906 2.05881 151.733 2.07161 151.645 2.07808C151.582 2.36417 151.511 2.65018 151.477 2.94111L151.731 2.48791C151.807 2.56827 151.885 2.65018 151.965 2.73218C151.614 2.89774 151.246 3.0745 151.114 3.46661C151.767 3.48433 152.073 2.82858 152.381 2.37374C152.252 2.4059 151.991 2.47183 151.859 2.50399C152.136 2.2291 152.459 1.96879 152.548 1.56538C152.357 1.72128 152.172 1.88359 151.994 2.05234ZM148.883 3.03432C149.006 3.15167 149.406 3.16447 149.403 2.93947C149.275 2.81414 148.868 2.80129 148.883 3.03432ZM159.546 1.32912C160.458 0.846994 161.524 0.416253 162.568 0.716792C163.434 0.962708 163.862 2.00897 163.623 2.82858C163.421 3.59362 162.73 4.08217 162.1 4.49364C161.213 5.01914 160.341 5.60413 159.337 5.88855C158.504 6.15054 157.63 6.22936 156.774 6.38521C156.285 6.45436 155.922 6.88178 155.408 6.8513C155.575 7.34951 154.978 7.13093 154.707 7.19197C154.853 7.27557 155.145 7.44431 155.291 7.52786C155.08 7.6147 154.868 7.69825 154.66 7.78344C154.704 7.89751 154.751 8.01327 154.8 8.13054C154.871 8.46164 154.97 8.84573 155.314 9.00486C155.651 9.07397 155.999 9.00168 156.342 8.9743C156.324 9.03703 156.286 9.16395 156.269 9.22668C157.115 9.04988 157.929 8.75895 158.673 8.31864C160.474 7.59379 162.481 7.48126 164.397 7.71114C164.974 7.76253 165.519 7.97628 166 8.2929V9.6156C165.48 10.4577 164.51 10.8466 163.575 11.0331C162.032 11.3609 160.427 11.3963 158.864 11.1921C157.959 11.0973 157.227 10.3549 156.283 10.4835C155.322 10.6056 154.301 10.5606 153.424 11.0331C152.723 11.3947 151.789 11.4573 151.342 12.179C150.959 12.3814 150.575 12.5791 150.204 12.7977C150.721 12.6354 151.242 12.4731 151.791 12.4537C151.383 12.7029 150.943 12.8974 150.51 13.0966C151.178 13.0966 151.893 12.9134 152.529 13.2076C153.548 13.6109 154.529 14.1076 155.512 14.5929C155.944 14.8291 156.427 15.0573 156.7 15.4881C156.964 15.9397 156.795 16.5135 156.466 16.8847C155.927 17.5211 155.09 17.7831 154.31 18.0001H153.578C151.956 17.6803 150.454 16.687 149.651 15.2374C149.371 14.7439 149.473 14.1622 149.509 13.627C148.98 13.1915 148.518 12.6161 147.847 12.3991C147.278 12.5277 146.814 12.9086 146.356 13.2445C146.218 12.6547 145.603 12.6948 145.122 12.7109C145.19 12.1999 145.185 11.6791 145.294 11.1745C145.449 10.6184 145.955 10.2777 146.385 9.937C146.886 9.64772 146.581 8.97594 146.842 8.53882C147.212 7.86863 147.708 7.27557 148.074 6.60055C148.063 6.47518 148.043 6.22608 148.033 6.1008C148.335 6.23573 148.659 6.36111 148.86 6.64238C148.927 6.67449 149.061 6.74201 149.129 6.77577L148.667 7.28359C149.303 7.11166 149.894 6.80629 150.384 6.36753C150.384 6.51217 150.387 6.8031 150.389 6.94774C151.337 7.21288 152.302 6.86415 153.206 6.58766C154.317 6.30644 155.304 5.59452 155.943 4.65272C156.888 3.31076 158.117 2.15361 159.546 1.32912ZM161.268 1.55413C161.197 1.50752 161.051 1.41431 160.979 1.36771C160.928 1.51395 160.824 1.80806 160.772 1.95434C160.707 1.84182 160.579 1.62 160.514 1.50752C160.256 1.88842 160.029 2.29338 159.77 2.67109C159.833 2.46217 159.96 2.04591 160.023 1.83699C159.879 1.92861 159.738 2.02181 159.598 2.11343C159.435 2.53447 159.261 2.97486 158.895 3.2657C158.987 3.02785 159.175 2.55219 159.268 2.31429C158.48 2.67109 158.274 3.53736 157.778 4.16417C159.14 3.14197 160.556 2.19379 161.993 1.27609C161.722 1.29536 161.453 1.34197 161.268 1.55413ZM161.816 1.76629C161.61 1.88036 161.414 2.00409 161.224 2.14072C160.979 2.27247 160.748 2.42682 160.563 2.63574C160.2 2.74658 159.884 2.95231 159.731 3.30912C159.684 3.28825 159.589 3.24643 159.542 3.22397C159.052 3.62897 158.585 4.0629 158.027 4.37629C158.198 4.46954 158.368 4.5643 158.543 4.65755C158.864 4.40198 159.175 4.13037 159.428 3.80578C159.814 3.67234 160.145 3.42806 160.383 3.10019C160.67 2.98448 160.923 2.80612 161.153 2.60358C161.354 2.47665 161.553 2.34326 161.746 2.19862C161.931 2.08769 162.121 1.97516 162.31 1.86268C162.528 1.7743 162.711 1.63932 162.675 1.37896C162.372 1.47377 162.079 1.58948 161.816 1.76629ZM161.373 2.83983C161.809 2.70968 162.254 2.7884 162.648 2.99249C162.862 2.66148 162.408 2.549 162.221 2.36253C162.523 2.40272 162.834 2.45255 163.139 2.49747C163.024 2.38345 162.91 2.26928 162.797 2.15844L162.946 1.84341C162.419 2.17129 161.902 2.51684 161.373 2.83983ZM160.861 3.20948C161.346 3.21595 161.871 3.4795 162.33 3.20793C161.874 2.98448 161.271 2.70804 160.861 3.20948ZM158.932 4.79901C159.454 4.57874 160.007 4.27984 160.581 4.5402C160.712 4.4213 160.847 4.30075 160.981 4.18025C160.675 4.12399 160.357 4.07579 160.057 4.0291C160.44 3.79288 160.874 3.81061 161.281 3.97128C161.382 3.88445 161.584 3.71088 161.686 3.62578C161.347 3.52934 161.007 3.45376 160.665 3.38305C160.078 3.84427 159.454 4.26381 158.932 4.79901ZM162.307 3.41841C162.398 3.50041 162.398 3.50041 162.307 3.41841V3.41841ZM160.483 9.02577C160.749 9.05794 160.971 9.00168 161.15 8.85375C161.364 8.54838 161.738 8.41344 162.033 8.19327C161.352 8.0791 160.871 8.54684 160.483 9.02577ZM161.458 8.82004C162.221 8.95348 163.009 8.71558 163.787 8.78947C163.878 8.63522 164.06 8.32502 164.15 8.16917C163.594 8.26074 163.103 8.52911 162.57 8.68665C162.813 8.51467 163.061 8.35554 163.309 8.1868C162.648 8.09036 161.895 8.37809 161.458 8.82004ZM163.97 8.68984C164.15 8.76701 164.334 8.76059 164.518 8.67221C164.549 8.61267 164.609 8.49212 164.64 8.43272C164.429 8.34912 164.032 8.4841 163.97 8.68984ZM164.76 8.67695C164.948 8.88915 165.327 8.84414 165.588 8.79749C165.527 8.5452 164.903 8.39417 164.76 8.67695ZM161.673 9.24112C161.215 9.22021 160.756 9.26358 160.302 9.3054C160.231 9.4115 160.086 9.62198 160.013 9.72808C160.731 9.76507 161.503 9.855 162.164 9.50626C162.218 9.55615 162.325 9.65414 162.378 9.70398C162.688 9.66863 163.003 9.62198 163.307 9.54007C163.713 9.74416 164.171 9.47415 164.585 9.67505C164.661 9.63487 164.813 9.55132 164.89 9.51114C164.967 9.58663 165.125 9.73769 165.202 9.81327C165.331 9.58663 165.459 9.35843 165.587 9.1286C165.504 9.1624 165.34 9.23142 165.259 9.26522C165.063 9.0675 164.818 9.14787 164.586 9.2106C164.353 8.9984 164.034 9.10131 163.792 9.22987C163.567 8.93575 163.199 9.18003 162.899 9.16714C162.485 9.12377 162.07 9.12058 161.673 9.24112ZM160.02 10.2086C160.274 10.6377 160.709 10.8965 161.219 10.8097C161.112 10.6522 160.897 10.3388 160.79 10.1829C161.171 10.2472 161.456 10.4835 161.63 10.8161C161.889 10.7791 162.148 10.7406 162.409 10.6972C162.344 10.5317 162.215 10.1974 162.152 10.0303C162.419 10.1796 162.639 10.3934 162.772 10.6715C162.902 10.6554 163.161 10.6232 163.29 10.6088C163.223 10.4095 163.16 10.2118 163.098 10.0125C163.32 10.1925 163.529 10.3854 163.742 10.5782C163.797 10.4625 163.907 10.2327 163.962 10.1186C164.019 10.1877 164.134 10.3276 164.191 10.3983C164.372 10.2841 164.564 10.1701 164.749 10.0527C163.171 9.96917 161.584 9.99163 160.02 10.2086ZM152.086 14.8773C152.342 14.9513 152.603 15.0059 152.868 15.0622C153.057 14.9786 153.766 14.887 153.385 14.5929C153.022 14.2249 152.477 14.752 152.086 14.8773ZM152.918 15.2068C152.796 15.284 152.676 15.3643 152.561 15.4479C153.12 15.6681 153.67 15.3595 154.164 15.1297C153.758 14.8517 153.331 15.1377 152.918 15.2068ZM151.606 15.6005C151.903 15.8416 152.183 16.1374 152.584 16.1968C153.304 16.7417 154.273 16.7513 155.087 17.1113C155.129 17.0245 155.213 16.8509 155.255 16.7642C154.965 16.695 154.678 16.6308 154.388 16.5777C153.952 16.3881 153.497 16.2515 153.046 16.1053C152.662 15.7951 152.237 15.5363 151.888 15.1859C151.789 15.3225 151.699 15.4624 151.606 15.6005ZM153.002 15.6568C153.535 16.0875 154.135 15.7211 154.659 15.4849C154.145 15.1554 153.563 15.7002 153.002 15.6568ZM151.456 16.0377C151.284 16.1261 151.297 16.5311 151.537 16.4861C151.689 16.3913 151.692 15.9943 151.456 16.0377ZM155.051 16.4106C155.333 16.5022 155.617 16.5938 155.904 16.6806L155.836 16.4187L156.05 16.5279C156.137 16.3238 156.225 16.1197 156.309 15.914C155.893 16.0875 155.474 16.2595 155.051 16.4106ZM151.947 16.5263C151.879 16.8091 151.969 16.912 152.219 16.8349C152.282 16.5585 152.192 16.4556 151.947 16.5263ZM152.449 16.5343C152.485 16.7047 152.555 17.0454 152.589 17.2158C152.751 17.2688 152.916 17.3202 153.083 17.3716C153.164 16.9104 152.83 16.6886 152.449 16.5343ZM155.294 17.0969C155.362 17.0856 155.497 17.0631 155.565 17.0518L155.619 16.9169C155.562 16.6629 155.173 16.912 155.294 17.0969ZM153.339 17.01C153.163 17.2013 153.443 17.5742 153.678 17.4327C153.865 17.2415 153.565 16.875 153.339 17.01ZM153.853 17.0984C153.96 17.7108 154.532 17.3669 154.93 17.3282C154.57 17.2544 154.21 17.174 153.853 17.0984ZM67.0841 5.46113C67.7779 3.96327 68.4831 2.47183 69.1931 0.981979C71.6329 0.994826 74.071 0.97879 76.5108 0.989997C73.9041 6.3981 71.3849 11.8463 68.796 17.2624C66.7242 17.2479 64.6541 17.2608 62.5823 17.2591C62.13 17.2849 61.7183 16.9956 61.2628 17.0791C59.6562 17.309 58.0271 17.391 56.4059 17.2993C55.4203 17.219 54.331 16.9651 53.7036 16.1389C53.3956 15.7147 53.5123 15.149 53.736 14.7151C54.8529 12.3847 55.9359 10.0366 57.0593 7.70791C57.946 6.19237 59.7924 5.61698 61.4232 5.27786C63.3005 5.04324 65.2182 5.16059 67.0841 5.46113ZM64.6444 7.85091C64.1126 8.01806 63.97 8.60146 63.7479 9.04022C62.9163 10.9189 61.9387 12.7383 61.1914 14.6508C61.7799 14.7022 62.6439 14.8323 62.9195 14.1541C63.73 12.4924 64.5082 10.8161 65.3171 9.15434C65.4776 8.78628 65.7207 8.43436 65.7678 8.02936C65.5262 7.64681 65.0075 7.7336 64.6444 7.85091ZM77.0992 4.46148C77.652 3.30105 78.1805 2.12947 78.756 0.97879C81.2055 0.99806 83.6549 0.97715 86.1044 0.989997C85.5662 2.15038 85.041 3.31558 84.4898 4.46954C82.0257 4.45182 79.5633 4.46626 77.0992 4.46148ZM123.578 0.988402C126.257 0.967537 128.937 0.981979 131.617 0.981979C131.203 1.83858 130.8 2.70002 130.394 3.5615C131.033 3.55986 131.67 3.55822 132.31 3.56469C131.967 4.28945 131.608 5.00629 131.271 5.73115C130.637 5.73752 130.004 5.73434 129.37 5.74071C128.165 8.30575 126.948 10.866 125.732 13.4261C125.628 13.6527 125.515 13.8954 125.575 14.1526C126.009 14.5206 126.617 14.4595 127.149 14.5157C126.744 15.366 126.346 16.2177 125.962 17.0776C124.887 17.2158 123.808 17.3106 122.725 17.2769C121.276 17.2383 119.69 17.4841 118.398 16.6741C117.665 16.2868 117.134 15.4736 117.294 14.6315C117.466 13.7572 117.977 13.0035 118.319 12.1918C119.355 10.0559 120.3 7.88143 121.324 5.74071C121.062 5.74235 120.799 5.7439 120.54 5.74554C120.87 5.0416 121.204 4.33929 121.535 3.63699C121.885 3.54542 122.346 3.54378 122.524 3.16611C122.91 2.45729 123.224 1.71321 123.578 0.988402ZM139.231 1.39021C142.16 1.17806 145.094 1.06394 148.025 0.885535C147.75 1.19897 147.507 1.54128 147.28 1.89002C145.467 1.77107 143.652 1.68752 141.839 1.5734C140.969 1.51878 140.092 1.54128 139.231 1.39021ZM32.8434 5.11075C34.3202 4.9693 35.8051 5.03203 37.2868 5.02069C38.916 5.06415 40.6084 5.24897 42.0642 6.03C42.6331 6.33537 43.2249 6.98947 42.9039 7.67096C41.8307 10.0607 40.6878 12.4216 39.5757 14.7954C39.1219 15.8594 37.966 16.3367 36.9512 16.724C34.9314 17.4343 32.7688 17.6931 30.6322 17.6497C28.5928 17.6497 26.4757 17.7316 24.5466 16.9651C23.9371 16.7272 23.2611 16.3993 23.0033 15.7581C22.8136 15.3788 23.0536 14.9915 23.1946 14.6428C24.2597 12.3332 25.3815 10.0495 26.4741 7.75287C26.7432 7.14214 27.3122 6.74201 27.8893 6.43983C29.4229 5.6588 31.1396 5.29558 32.8434 5.11075ZM33.6231 8.41181C32.6342 10.5317 31.5967 12.6274 30.6354 14.76C31.1412 14.8532 31.6567 14.8388 32.1544 14.7022C33.1822 12.4329 34.2732 10.1909 35.335 7.9361C34.7546 7.83806 33.8452 7.69342 33.6231 8.41181ZM85.1771 7.00077C88.7241 5.32132 92.7411 4.83113 96.635 5.08501C97.8573 5.1943 99.1331 5.41772 100.15 6.14571C100.621 6.47846 100.895 7.13576 100.62 7.67579C99.1461 10.882 97.5882 14.0529 96.1276 17.2656C93.7235 17.2849 91.3097 17.3073 88.9121 17.2415C86.9749 17.7076 84.9129 17.7686 82.9903 17.2013C82.2105 16.9715 81.4519 16.5231 81.0401 15.8079C80.6137 15.03 80.8942 14.0594 81.4389 13.4149C82.4651 12.1774 83.9986 11.4782 85.5176 11.0347C88.0189 10.4625 90.5348 9.9499 93.0395 9.38895C93.2469 8.92131 93.4609 8.45681 93.6522 7.9827C93.1529 7.89273 92.5774 7.79469 92.1332 8.10001C91.8593 8.4713 91.6907 8.90678 91.4718 9.31023C89.0013 9.28613 86.5291 9.3054 84.0569 9.29898C84.4282 8.5323 84.7881 7.75934 85.1771 7.00077ZM89.0678 13.2317C88.8165 13.3972 88.5053 13.6479 88.609 13.9902C89.2428 14.4643 90.1296 14.3053 90.8185 14.0287C91.052 13.5225 91.2903 13.0179 91.5269 12.5133C90.6986 12.7189 89.8086 12.7785 89.0678 13.2317ZM52.8849 5.92399C54.2207 5.37271 55.6895 5.33088 57.116 5.33252C56.5211 6.57486 55.9472 7.82845 55.349 9.07069C54.1348 9.09161 52.8655 9.12696 51.7518 9.66535C51.3173 9.86307 50.9656 10.2151 50.7775 10.6538C49.74 12.8475 48.7042 15.0429 47.6683 17.2383C45.1961 17.2415 42.7239 17.2383 40.2517 17.2399C42.0949 13.357 43.9252 9.46932 45.7408 5.57516C48.0719 5.55753 50.4031 5.5768 52.7342 5.56559C52.7715 5.65552 52.8477 5.83397 52.8849 5.92399ZM108.602 5.9336C110.982 5.79215 113.349 5.29722 115.74 5.47398C116.625 5.54149 117.563 5.75197 118.231 6.36917C118.635 6.75003 118.752 7.37361 118.489 7.86535C117.002 10.9832 115.581 14.13 114.114 17.2575C111.667 17.2785 109.22 17.2608 106.773 17.2656C108.129 14.3888 109.494 11.5152 110.862 8.64483C110.928 8.44392 111.144 8.18844 110.884 8.03573C110.33 7.91519 109.581 8.01482 109.361 8.61749C107.988 11.4991 106.632 14.392 105.253 17.2704C102.816 17.2608 100.378 17.2704 97.94 17.2656C99.78 13.3618 101.643 9.46932 103.468 5.55912C104.977 5.54304 106.486 5.56072 107.997 5.54951C108.107 5.79543 108.297 6.01237 108.602 5.9336ZM71.0477 17.2656C72.8114 13.5402 74.5655 9.80844 76.3308 6.08307C78.7965 6.08471 81.2606 6.08471 83.7246 6.08307C81.9706 9.80999 80.2134 13.5338 78.4642 17.264C75.992 17.2704 73.5199 17.2656 71.0477 17.2656ZM133.21 9.04505C137.503 8.61431 141.81 8.32502 146.109 7.95701C145.731 8.51148 145.312 9.09006 145.315 9.79236C141.278 9.57542 137.24 9.35041 133.21 9.04505ZM143.122 14.1365C143.679 13.8279 144.305 13.6544 144.846 13.3104C145.179 13.0629 145.571 13.2734 145.926 13.3473C145.863 13.5627 145.8 13.7781 145.74 13.9951C145.978 14.9642 145.36 15.824 145.055 16.6999C144.853 17.309 144.407 17.8345 143.763 18.0001H142.719C142.463 17.8104 142.178 17.6175 142.081 17.2993C141.687 16.1727 142.207 14.8613 143.122 14.1365ZM144.999 13.3457C145.033 13.5643 145.148 13.6062 145.342 13.4727C145.303 13.2493 145.19 13.2059 144.999 13.3457ZM143.266 16.2402C143.237 16.6276 143.207 17.018 143.259 17.4054C143.35 17.4215 143.532 17.4536 143.624 17.4697C143.593 17.1756 143.574 16.8799 143.556 16.5841C143.66 16.1808 143.775 15.779 143.895 15.3804C144.06 15.1201 144.203 14.8469 144.328 14.5656C143.616 14.805 143.543 15.652 143.266 16.2402ZM144.666 14.6491C144.525 14.9207 145.154 15.1939 145.203 14.871C145.119 14.6925 144.851 14.5318 144.666 14.6491ZM144.217 15.4672C144.405 15.5475 144.597 15.6231 144.791 15.6922C144.856 15.6022 144.984 15.4238 145.049 15.3354C144.848 15.1939 144.657 15.0412 144.478 14.879C144.392 15.0767 144.303 15.2727 144.217 15.4672ZM142.582 15.8031C142.632 15.8401 142.734 15.9156 142.784 15.9526C142.752 16.1791 142.506 16.3126 142.403 16.5054C142.548 16.4459 142.836 16.3286 142.98 16.2692C142.985 15.7308 143.293 15.2969 143.553 14.8484C143.201 15.1361 142.83 15.4157 142.582 15.8031ZM144.005 17.4166C144.083 17.2624 144.161 17.1064 144.238 16.9506L144.488 16.9297C144.373 16.8413 144.14 16.6678 144.023 16.5809C144.182 16.5826 144.501 16.5858 144.662 16.5874C144.451 16.425 144.242 16.2627 144.034 16.1004C144.31 16.1727 144.637 16.2901 144.816 15.9911C144.59 15.8577 144.37 15.7227 144.151 15.5861C143.966 16.1776 143.932 16.8027 144.005 17.4166ZM142.817 17.2093C142.826 17.121 142.846 16.9474 142.854 16.8606C142.854 16.7738 142.851 16.6018 142.849 16.5151C142.493 16.4845 142.489 17.2303 142.817 17.2093ZM127.587 17.0663C132.053 16.5279 136.54 16.1486 141.016 15.6761C140.73 16.2965 140.591 16.9715 140.653 17.6562C136.298 17.4408 131.939 17.3058 127.587 17.0663Z" fill="#154B8B"/>
</svg>
