<svg width="117" height="31" viewBox="0 0 117 31" fill="none" xmlns="http://www.w3.org/2000/svg">
<path d="M54.9784 10.8465H59.757L56.4003 26.192H51.6217L53.445 17.8823L46.8598 26.192H42.0812L45.438 10.8465H50.2221L48.4155 19.064L54.9784 10.8465ZM59.1046 22.2242C59.4459 22.2926 59.7932 22.3289 60.1417 22.3326C60.461 22.3512 60.7809 22.3066 61.0819 22.2013C61.3829 22.096 61.6587 21.9322 61.8926 21.7201C62.3442 21.281 62.662 20.5384 63.0914 18.6737L64.9091 10.8411H77.8342L74.4886 26.1866H69.526L71.9293 15.0528H68.5837L67.3458 20.2511C66.8942 22.1158 66.3756 24.4628 64.5579 25.5795C63.4929 26.2354 61.8926 26.4142 60.6268 26.4142C59.816 26.405 59.0078 26.3233 58.2124 26.1703L59.1046 22.2242ZM90.38 10.8465H95.1586L91.7963 26.192H87.0177L88.8467 17.8823L82.2615 26.192H77.4829L80.8396 10.8465H85.6238L83.8172 19.064L90.38 10.8465ZM101.51 15.996L101.398 16.0177L101.236 17.1831L99.2737 26.192H94.8073L98.1696 10.8465H104.844L105.502 19.5247L105.385 20.5818H105.502L105.909 19.5247L110.325 10.8465H117.005L113.643 26.192H109.177L111.139 17.1831L111.524 16.0177L111.407 15.996L106.021 26.192H102.435L101.51 15.996Z" fill="#006935"/>
<path d="M38.5406 0C38.3797 0.0249277 38.2224 0.0686064 38.0722 0.130093C32.7137 1.58821 22.1362 0.130093 22.1362 0.130093C17.8237 0.220292 13.6725 1.74078 10.3709 4.43941C6.96204 7.06341 4.55535 10.7217 3.53483 14.8306L0.0665894 30.9729L27.8013 18.5057C27.3108 20.1541 27.3694 21.911 27.9686 23.5251C28.8886 25.9047 30.4164 26.0185 30.8514 26.0185C33.1375 25.6391 34.1635 20.8961 34.1635 20.8961L38.5517 0.130093C38.5517 0.130093 38.5963 0 38.5517 0" fill="#95C11F"/>
<path d="M27.9689 23.5089C27.3697 21.8949 27.3112 20.1379 27.8016 18.4895L0.0669113 30.973L0 31.0001L30.9799 26.0186H30.8517C30.4112 26.0186 28.889 25.8939 27.9633 23.4981" fill="#006935"/>
</svg>
