<svg width="158" height="78" viewBox="0 0 158 78" fill="none" xmlns="http://www.w3.org/2000/svg">
<path fill-rule="evenodd" clip-rule="evenodd" d="M80.0149 15.2835C80.0149 15.2835 80.0149 15.18 37.557 44.1455C121.86 44.249 121.86 44.249 121.86 44.249H121.758L80.0149 15.2835Z" fill="#0000AA" stroke="#0000AA"/>
<path d="M17.2651 72.7815C15.8712 72.4247 14.8397 71.5604 14.2456 70.2517C13.7573 69.1759 13.7444 66.9015 14.2208 65.8569C14.6845 64.8401 15.5193 63.9721 16.4355 63.5543C17.5812 63.0318 19.7588 63.033 20.9076 63.5568C22.5453 64.3034 23.5725 66.0259 23.5725 68.0253C23.5725 70.0293 22.5344 71.7687 20.9175 72.4737C20.0243 72.8632 18.1886 73.0179 17.2651 72.7815ZM19.7 70.1712C20.9988 69.3686 21.1348 67.0986 19.9474 66.0419C18.9075 65.1165 17.3131 65.545 16.7545 66.9001C15.8595 69.0712 17.8689 71.3028 19.7 70.1712ZM63.6173 72.7809C62.3415 72.4547 61.4056 71.6407 60.7976 70.3285C60.271 69.1922 60.2351 66.9555 60.7258 65.8679C61.1671 64.8898 61.9101 64.0838 62.8133 63.6033C63.4718 63.2529 63.7723 63.1927 64.872 63.1909C65.8597 63.1892 66.3007 63.2602 66.7656 63.4958L67.3715 63.8029L67.4151 65.2232C67.439 66.0043 67.4148 66.6435 67.3612 66.6435C67.3076 66.6435 67.0633 66.4725 66.8184 66.2636C66.1928 65.7301 65.291 65.506 64.6425 65.723C63.1947 66.2072 62.5731 68.3972 63.5324 69.6334C64.2405 70.5458 65.4235 70.7293 66.5159 70.0963C66.8785 69.8862 67.2364 69.7143 67.3112 69.7143C67.386 69.7143 67.4472 70.3052 67.4472 71.0273V72.3402L66.8888 72.5767C66.2045 72.8665 64.394 72.9795 63.6173 72.7809ZM42.0608 72.5771C42.0174 72.4626 42.0025 71.9281 42.0276 71.3892L42.0733 70.4094L42.6491 70.3151C42.9658 70.2632 43.3066 70.1381 43.4065 70.037C43.5308 69.9114 43.6121 68.8488 43.6639 66.6746L43.7397 63.4958H47.2238H50.708V68.0253V72.5549H49.4204H48.1328L48.057 69.1769L47.9813 65.799H47.2238H46.4664L46.3907 68.4092C46.3429 70.055 46.2462 71.141 46.129 71.3484C45.8355 71.8675 45.0688 72.452 44.4545 72.6249C43.619 72.8601 42.1568 72.8309 42.0608 72.5771ZM134.922 72.5771C134.878 72.4626 134.863 71.9278 134.889 71.3887C134.928 70.5447 134.976 70.402 135.237 70.3624C136.57 70.1605 136.585 70.1211 136.676 66.4899L136.752 63.4958H140.085H143.417V68.0253V72.5549H142.206H140.994L140.918 69.1769L140.842 65.799H140.085H139.327L139.252 68.3324C139.172 70.987 139.068 71.4292 138.368 72.0708C137.891 72.5089 136.996 72.7711 135.952 72.7785C135.286 72.7832 134.977 72.7227 134.922 72.5771ZM4.65153 72.4443C4.6098 72.334 4.59379 70.2755 4.61595 67.8698L4.65625 63.4958H5.86813H7.08002L7.15577 65.0312L7.23151 66.5667H8.59488H9.95826L10.034 65.0312L10.1097 63.4958H11.3974H12.685V68.0253V72.5549H11.3974H10.1097L10.034 70.8659L9.95826 69.1769H8.59488H7.23151L7.15577 70.8659L7.08002 72.5549L5.9037 72.5998C5.04305 72.6326 4.70704 72.5909 4.65153 72.4443ZM24.7992 72.4443C24.7575 72.334 24.7414 70.2755 24.7636 67.8698L24.8039 63.4958H27.1564C29.3814 63.4958 29.5497 63.5171 30.2618 63.888C31.2881 64.4224 31.7718 65.2896 31.7597 66.5734C31.7419 68.4715 30.6615 69.5207 28.5456 69.695L27.3792 69.7911L27.3034 71.173L27.2277 72.5549L26.0514 72.5998C25.1907 72.6326 24.8547 72.5909 24.7992 72.4443ZM28.4298 67.3484C28.7107 67.2295 28.9869 66.9842 29.0435 66.8035C29.2492 66.1466 28.4421 65.4435 27.6562 65.5948C27.4413 65.6362 27.3686 65.8156 27.3322 66.395C27.2552 67.6204 27.4297 67.772 28.4298 67.3484ZM32.9793 72.444C32.9377 72.3339 32.9217 70.2755 32.9439 67.8698L32.9841 63.4958H34.1203H35.2564L35.3322 65.8757C35.38 67.3786 35.4637 68.2304 35.5594 68.1871C35.6427 68.1494 36.3926 67.0784 37.2258 65.8072L38.7406 63.4958H40.0283H41.3159V68.0253V72.5549H40.0283H38.7406L38.6986 70.2787C38.6687 68.658 38.6069 68.0194 38.4838 68.0609C38.3887 68.0931 37.6841 69.1173 36.9179 70.3371L35.5249 72.5549L34.29 72.5995C33.3822 72.6323 33.035 72.5911 32.9793 72.444ZM52.2194 72.4475C52.177 72.3355 52.1604 70.2755 52.1826 67.8698L52.2229 63.4958H53.5105H54.7981L54.8739 65.1848L54.9496 66.8738L56.3288 66.9623C57.9277 67.0649 58.7017 67.3917 59.2418 68.1922C59.5516 68.6513 59.5891 68.8625 59.5442 69.8959C59.485 71.2575 59.229 71.7293 58.2737 72.2373C57.7474 72.5171 57.3564 72.5606 54.9864 72.603C52.8582 72.641 52.2804 72.6085 52.2194 72.4475ZM56.6917 70.3285C57.0771 69.9379 57.0749 69.6421 56.6837 69.2456C56.4408 68.9994 56.2171 68.9406 55.6612 68.9769C54.954 69.0231 54.9493 69.027 54.9017 69.6153C54.8291 70.511 54.9269 70.6356 55.7023 70.6356C56.1868 70.6356 56.4779 70.5452 56.6917 70.3285ZM68.5786 72.444C68.5369 72.3339 68.5209 70.2755 68.5431 67.8698L68.5834 63.4958H69.871H71.1586L71.2018 65.0696C71.2256 65.9352 71.2977 66.6435 71.3621 66.6435C71.4266 66.6435 72.0055 65.918 72.6486 65.0312L73.818 63.419H75.2529C76.3682 63.419 76.6879 63.466 76.6879 63.6298C76.6879 63.7457 76.0062 64.7049 75.173 65.7614C74.3399 66.8179 73.6582 67.7743 73.6582 67.8867C73.6582 67.9992 74.3739 69.0417 75.2488 70.2033C76.1236 71.365 76.8394 72.3866 76.8394 72.4735C76.8394 72.5719 76.2398 72.6316 75.2522 72.6316H73.6649L72.5978 71.0194C72.0108 70.1327 71.4663 69.4072 71.3878 69.4072C71.3092 69.4072 71.2256 70.1155 71.2018 70.9811L71.1586 72.5549L69.9065 72.5995C68.9845 72.6324 68.6344 72.5914 68.5786 72.444ZM77.5163 72.444C77.4746 72.3339 77.4586 70.2755 77.4808 67.8698L77.5211 63.4958H78.7329H79.9448L79.9866 65.9256C80.0133 67.4765 80.0838 68.3367 80.1815 68.3036C80.2657 68.2752 81.0309 67.1818 81.8818 65.8739L83.429 63.4958H84.7166H86.0043V68.0253V72.5549H84.7166H83.429L83.3871 70.2901C83.3618 68.923 83.2856 68.0253 83.1949 68.0253C83.1122 68.0253 82.3812 69.0445 81.5704 70.2901L80.0963 72.5549L78.8442 72.5995C77.9222 72.6324 77.5721 72.5914 77.5163 72.444ZM87.512 72.4377C87.4716 72.3311 87.4567 70.2755 87.4788 67.8698L87.5191 63.4958H88.731H89.9429L89.9846 65.9141C90.0076 67.2442 90.0778 68.3324 90.1408 68.3324C90.2468 68.3324 90.5489 67.8773 92.6168 64.603L93.3721 63.407L94.6115 63.4514L95.8509 63.4958V68.0253V72.5549H94.639H93.4271L93.3852 70.2019C93.3552 68.5162 93.294 67.8656 93.1695 67.9076C93.074 67.9399 92.4011 68.914 91.6744 70.0722C90.9476 71.2304 90.2694 72.2801 90.1672 72.4049C89.9229 72.7033 87.6233 72.7318 87.512 72.4377ZM100.542 72.4443C100.5 72.334 100.484 70.2755 100.507 67.8698L100.547 63.4958H101.759H102.971L103.046 65.0312L103.122 66.5667H104.486H105.849L105.925 65.0312L106 63.4958H107.288H108.576V68.0253V72.5549H107.288H106L105.925 70.8659L105.849 69.1769H104.486H103.122L103.046 70.8659L102.971 72.5549L101.794 72.5998C100.934 72.6326 100.598 72.5909 100.542 72.4443ZM110.083 72.4377C110.043 72.3311 110.028 70.2755 110.05 67.8698L110.091 63.4958H111.302H112.514L112.556 65.8374C112.587 67.5598 112.647 68.1784 112.783 68.1771C112.885 68.1761 113.642 67.1025 114.466 65.7913L115.962 63.4073L117.192 63.4515L118.422 63.4958V68.0253V72.5549H117.21H115.998L115.957 70.2901C115.926 68.6301 115.865 68.0254 115.729 68.0255C115.627 68.0256 115.067 68.7974 114.484 69.7405C113.9 70.6837 113.235 71.72 113.006 72.0435L112.588 72.6316H111.372C110.533 72.6316 110.134 72.5716 110.083 72.4377ZM120.084 72.4443C120.042 72.334 120.026 70.2755 120.048 67.8698L120.089 63.4958H121.301H122.512L122.556 65.0696C122.581 65.9825 122.662 66.6435 122.75 66.6435C122.833 66.6435 123.425 65.918 124.066 65.0312L125.232 63.419H126.713C127.629 63.419 128.193 63.4794 128.193 63.5775C128.193 63.6646 127.477 64.6395 126.603 65.7437C125.728 66.848 125.012 67.808 125.012 67.877C125.012 67.9923 127.017 70.745 127.841 71.7606C128.481 72.5491 128.365 72.6316 126.623 72.6316H125.053L124.01 71.0222C123.436 70.1369 122.884 69.4114 122.783 69.4099C122.653 69.408 122.586 69.8707 122.556 70.9811L122.512 72.5549L121.336 72.5998C120.475 72.6326 120.139 72.5909 120.084 72.4443ZM129.02 72.4413C128.979 72.3327 128.964 70.2755 128.986 67.8698L129.026 63.4958H131.753H134.48V64.5706V65.6454L133.041 65.7222L131.602 65.799V66.2596V66.7202L132.813 66.797L134.025 66.8738V67.9486V69.0234L132.813 69.1001L131.602 69.1769V69.7143V70.2517L133.041 70.3285L134.48 70.4053V71.4801V72.5549L131.788 72.5968C129.703 72.6293 129.078 72.5942 129.02 72.4413ZM145.08 72.4475C145.038 72.3355 145.021 70.2755 145.044 67.8698L145.084 63.4958H146.371H147.659L147.735 65.1848L147.811 66.8738L149.174 66.9635C150.874 67.0754 151.684 67.4499 152.126 68.3284C152.812 69.6926 152.328 71.6211 151.143 72.2389C150.612 72.5162 150.208 72.5608 147.847 72.603C145.719 72.641 145.141 72.6085 145.08 72.4475ZM149.553 70.3285C149.938 69.9379 149.936 69.6421 149.545 69.2456C149.302 68.9994 149.078 68.9406 148.522 68.9769C147.815 69.0231 147.81 69.027 147.763 69.6153C147.69 70.511 147.788 70.6356 148.563 70.6356C149.048 70.6356 149.339 70.5452 149.553 70.3285ZM90.3796 62.8181C89.78 62.5422 89.2612 61.9991 89.2612 61.6476C89.2612 61.4777 90.192 60.9624 90.4987 60.9624C90.5905 60.9624 90.8235 61.1351 91.0166 61.3462C91.4767 61.8494 92.032 61.8402 92.4337 61.3226C92.7315 60.9389 92.7841 60.9255 93.3356 61.093C94.1725 61.3471 94.3624 61.626 94.0391 62.126C93.4547 63.0301 91.6016 63.3806 90.3796 62.8181ZM67.0964 50.5752C67.0394 50.5175 66.9928 44.9887 66.9928 38.2891C66.9928 27.5396 67.0196 26.108 67.221 26.108C67.3466 26.108 71.2472 28.675 75.889 31.8123C80.5309 34.9497 84.4493 37.5486 84.5967 37.5876C84.8489 37.6545 84.8668 37.3113 84.9042 31.6914L84.9439 25.7242H88.731H92.5182L92.5939 36.0116C92.6847 48.3402 92.6609 49.8908 92.3792 50.0004C92.1855 50.0757 90.639 49.0478 79.614 41.5154C77.0991 39.7973 74.9696 38.3915 74.8818 38.3915C74.7731 38.3915 74.7094 40.3436 74.6824 44.4948L74.6428 50.5982L70.9214 50.6392C68.8746 50.6617 67.1533 50.6329 67.0964 50.5752ZM55.8864 31.5358C55.7015 31.3485 55.7631 7.09911 55.9487 6.98283C56.04 6.92566 60.0009 9.51919 64.7508 12.7462C69.744 16.1385 73.4435 18.5564 73.5208 18.478C73.5943 18.4034 73.6724 15.6849 73.6942 12.4368L73.7339 6.53125H77.5211H81.3082L81.347 18.7945C81.3849 30.7885 81.3794 31.056 81.0972 30.9812C80.9385 30.9391 76.9757 28.3002 72.2911 25.117C67.5185 21.874 63.7161 19.3875 63.6429 19.4617C63.571 19.5345 63.4944 22.2862 63.4725 25.5765L63.4329 31.5588L59.7114 31.5998C57.6646 31.6224 55.9433 31.5936 55.8864 31.5358Z" fill="#A6A6A6"/>
<path d="M17.2742 72.8057C15.2346 72.2836 14.0092 70.7085 13.8631 68.4212C13.7427 66.5358 14.4914 64.8113 15.8059 63.9467C16.094 63.7572 16.3979 63.5491 16.4812 63.4843C16.7204 63.2983 17.1368 63.2506 18.6778 63.2329C20.4747 63.2123 21.385 63.572 22.3829 64.697C23.1919 65.6089 23.5816 66.699 23.5816 68.0495C23.5816 70.0535 22.5434 71.7929 20.9265 72.4979C20.0333 72.8874 18.1976 73.042 17.2742 72.8057ZM20.0322 69.9775C20.5873 69.4384 20.8672 68.4345 20.7268 67.4857C20.6443 66.9279 20.4841 66.6198 20.0449 66.1747C19.5323 65.6552 19.3891 65.5928 18.7072 65.5928C18.0984 65.5928 17.8449 65.677 17.4569 66.0079C16.1042 67.1616 16.3291 69.691 17.8446 70.3681C18.4335 70.6312 19.5675 70.4288 20.0322 69.9775ZM63.6263 72.8051C62.3505 72.4788 61.4146 71.6649 60.8066 70.3527C60.2801 69.2164 60.2441 66.9797 60.7349 65.8921C61.1768 64.9126 61.9201 64.1071 62.8223 63.6298C63.4662 63.2892 63.7934 63.2211 64.8053 63.2174C65.6205 63.2144 66.2493 63.3037 66.7265 63.4904L67.4359 63.7678L67.484 65.2312C67.5104 66.0361 67.5052 66.7215 67.4724 66.7544C67.4395 66.7873 67.1848 66.6114 66.9063 66.3635C66.6277 66.1157 66.1219 65.837 65.7821 65.7442C63.5055 65.1229 62.0826 68.3561 63.889 70.0456C64.2356 70.3697 64.4468 70.4295 65.2459 70.4295C66.0449 70.4295 66.2773 70.3637 66.7384 70.0072C67.0388 69.775 67.3232 69.585 67.3704 69.585C67.4177 69.585 67.4563 70.2103 67.4563 70.9747V72.3644L66.8979 72.6009C66.2136 72.8907 64.4031 73.0037 63.6263 72.8051ZM42.1076 72.707C42.0521 72.6507 42.0066 72.098 42.0066 71.4787V70.3527H42.604C43.6179 70.3527 43.673 70.1572 43.673 66.5567V63.4432H47.2329H50.7928V68.0495V72.6558H49.4294H48.0661V69.2011V65.7464H47.2329H46.3997V68.208C46.3997 69.9397 46.3384 70.8183 46.1931 71.1709C45.9296 71.81 45.1857 72.4458 44.4636 72.6491C43.8336 72.8264 42.2635 72.865 42.1076 72.707ZM134.969 72.707C134.913 72.6507 134.868 72.098 134.868 71.4787V70.3527H135.45C135.849 70.3527 136.123 70.2512 136.321 70.0299C136.581 69.7386 136.614 69.4007 136.656 66.5751L136.703 63.4432H140.103H143.502V68.0495V72.6558H142.215H140.927V69.2011V65.7464H140.094H139.261L139.257 68.1647C139.253 71.3172 138.958 72.0567 137.491 72.5869C136.892 72.8036 135.146 72.8867 134.969 72.707ZM4.58955 68.0495V63.4432H5.87718H7.16481V65.0554V66.6676H8.60393H10.043V65.0554V63.4432H11.4064H12.7698V68.0495V72.6558H11.4064H10.043V70.8901V69.1243H8.60393H7.16481V70.8901V72.6558H5.87718H4.58955V68.0495ZM24.7372 68.0334V63.4111L27.1273 63.4655C29.3358 63.5159 29.5747 63.5498 30.2707 63.9121C31.2971 64.4465 31.7808 65.3136 31.7688 66.5976C31.7507 68.5239 30.6393 69.5828 28.5042 69.708L27.3125 69.778V71.2169V72.6558H26.0248H24.7372V68.0334ZM28.8745 67.0962C29.0607 66.8707 29.1181 66.6372 29.0532 66.3703C28.9171 65.8114 28.7901 65.7217 28.0073 65.6323L27.3125 65.5529V66.5905V67.6282L27.9563 67.5283C28.3398 67.4689 28.7111 67.2941 28.8745 67.0962ZM32.9175 68.0555V63.4432H34.1293H35.3412L35.3418 66.0919L35.3424 68.7405L37.046 66.0925L38.7497 63.4446L40.0752 63.4439L41.4007 63.4432V68.0495V72.6558H40.041H38.6814L38.6398 70.1711L38.5982 67.6863L37.068 70.1327L35.5378 72.5791L34.2276 72.6234L32.9175 72.6678V68.0555ZM52.1562 68.059V63.4432H53.5196H54.8829V65.1907V66.9381L56.2883 67.0004C57.9185 67.0727 58.6939 67.391 59.2509 68.2164C59.5606 68.6755 59.5981 68.8867 59.5532 69.9201C59.494 71.2817 59.238 71.7535 58.2828 72.2614C57.7543 72.5425 57.3669 72.5846 54.9208 72.6269L52.1562 72.6748V68.059ZM56.7267 70.4057C57.1034 70.0602 57.0754 69.4997 56.6671 69.2098C56.4764 69.0745 56.0165 68.9708 55.6067 68.9708H54.8829V69.8153V70.6598H55.6663C56.1827 70.6598 56.5441 70.5732 56.7267 70.4057ZM68.5167 68.0495V63.4432H69.8801H71.2434V65.2265V67.0097L72.5064 65.2649L73.7693 63.52L75.3089 63.4763C76.1556 63.4522 76.8484 63.4872 76.8484 63.5541C76.8484 63.621 76.0955 64.6273 75.1753 65.7903L73.5023 67.9048L75.1469 70.0884C76.0514 71.2894 76.8424 72.3583 76.9046 72.4639C76.9926 72.6131 76.6363 72.6538 75.3046 72.6468L73.5915 72.6377L72.4553 70.8481L71.3192 69.0585L71.2765 70.8572L71.2338 72.6558H69.8753H68.5167V68.0495ZM77.4544 68.0495V63.4432H78.742H80.0296L80.0335 66.0919L80.0374 68.7405L81.7377 66.0944L83.4381 63.4483L84.7636 63.4458L86.0891 63.4432V68.0495V72.6558H84.7295H83.3698L83.3282 70.1609L83.2866 67.666L81.696 70.1578L80.1054 72.6495L78.7799 72.6527L77.4544 72.6558V68.0495ZM87.4525 68.0495V63.4432H88.7365H90.0206L90.062 66.047L90.1035 68.6507L91.7099 66.0854L93.3163 63.52L94.626 63.4756L95.9357 63.4313V68.0436V72.6558H94.6517H93.3677L93.3262 70.0912L93.2847 67.5266L91.6941 70.0883L90.1035 72.6499L88.778 72.6529L87.4525 72.6558V68.0495ZM100.48 68.0495V63.4432H101.768H103.056V65.0554V66.6676H104.495H105.934V65.0554V63.4432H107.297H108.661V68.0495V72.6558H107.297H105.934V70.8901V69.1243H104.495H103.056V70.8901V72.6558H101.768H100.48V68.0495ZM110.024 68.0495V63.4432H111.308H112.592L112.633 66.051L112.675 68.6588L114.321 66.051L115.967 63.4432H117.237H118.507V68.0495V72.6558H117.223H115.939L115.898 70.123L115.856 67.5903L114.265 70.1228L112.675 72.6553L111.349 72.6556L110.024 72.6558V68.0495ZM120.022 68.0495V63.4432H121.305H122.588L122.63 65.2271L122.673 67.0109L123.955 65.2271L125.236 63.4432H126.795C127.652 63.4432 128.354 63.4692 128.354 63.5009C128.354 63.5327 127.604 64.5086 126.687 65.6696C125.771 66.8306 125.021 67.8429 125.021 67.9192C125.021 67.9954 125.769 69.0405 126.684 70.2416C127.598 71.4428 128.348 72.4773 128.35 72.5407C128.352 72.604 127.614 72.6558 126.71 72.6558H125.066L123.832 70.7749L122.599 68.894L122.598 70.7749L122.597 72.6558H121.31H120.022V68.0495ZM128.96 68.0495V63.4432H131.762H134.565V64.5948V65.7464H133.05H131.535V66.2838V66.8212H132.823H134.11V67.9728V69.1243H132.823H131.535V69.7385V70.3527H133.05H134.565V71.5043V72.6558H131.762H128.96V68.0495ZM145.017 68.059V63.4432H146.381H147.744V65.1907V66.9381L149.145 67.0048C150.88 67.0873 151.68 67.4479 152.135 68.3526C152.822 69.7168 152.337 71.6453 151.152 72.2631C150.618 72.5416 150.218 72.5848 147.782 72.6269L145.017 72.6748V68.059ZM149.588 70.4057C149.964 70.0602 149.936 69.4997 149.528 69.2098C149.337 69.0745 148.877 68.9708 148.468 68.9708H147.744V69.8153V70.6598H148.527C149.044 70.6598 149.405 70.5732 149.588 70.4057ZM90.3914 62.8436C89.8652 62.6014 88.9692 61.6697 89.1401 61.5426C89.1701 61.5203 89.5354 61.3563 89.952 61.178L90.7094 60.8538L90.9026 61.2253C91.2589 61.9104 92.3465 61.9005 92.6057 61.2097L92.7425 60.845L93.5059 61.1665C94.3321 61.5146 94.4001 61.6503 94.022 62.1973C93.4232 63.0639 91.582 63.3916 90.3914 62.8436Z" fill="black"/>
</svg>
