<svg width="99" height="96" viewBox="0 0 99 96" fill="none" xmlns="http://www.w3.org/2000/svg">
<path fill-rule="evenodd" clip-rule="evenodd" d="M24.888 20.8174H31.2212V41.8169L24.888 36.3523V20.8174Z" fill="#241C24"/>
<path fill-rule="evenodd" clip-rule="evenodd" d="M32.4632 13.9001H38.5449V48.615L32.4632 42.9028V13.9001Z" fill="#241C24"/>
<path fill-rule="evenodd" clip-rule="evenodd" d="M39.7895 6.98291H45.9966V39.8732H39.7895V6.98291Z" fill="#241C24"/>
<path fill-rule="evenodd" clip-rule="evenodd" d="M47.2318 0.0644531H53.687V33.0765H47.2318V0.0644531Z" fill="#241C24"/>
<path fill-rule="evenodd" clip-rule="evenodd" d="M54.5567 6.61523H60.7654V39.8732H54.5567V6.61523Z" fill="#241C24"/>
<path fill-rule="evenodd" clip-rule="evenodd" d="M62.2553 13.7732H68.3369V42.7833L62.2553 48.6156V13.7732Z" fill="#241C24"/>
<path fill-rule="evenodd" clip-rule="evenodd" d="M69.4509 20.6946H75.663V35.8684L69.4509 41.8167V20.6946Z" fill="#241C24"/>
<path fill-rule="evenodd" clip-rule="evenodd" d="M39.7895 40.6067H45.9966V71.0612H39.7895V40.6067Z" fill="#FED324"/>
<path fill-rule="evenodd" clip-rule="evenodd" d="M47.2318 34.0522H53.3118V71.0613H47.2318V34.0522Z" fill="#FED324"/>
<path fill-rule="evenodd" clip-rule="evenodd" d="M54.5567 40.7236H60.7654V71.0622H54.5567V40.7236Z" fill="#FED324"/>
<path fill-rule="evenodd" clip-rule="evenodd" d="M1.02633 79.7307C1.02633 79.7307 10.3403 79.6081 11.0865 80.0968C11.8319 80.5788 12.5764 81.0708 12.7009 82.0373C12.8246 83.0096 12.2046 86.0409 9.84392 86.1643C7.48663 86.2853 4.75834 86.0409 4.75834 86.0409L4.63637 88.4701L0.911133 88.3492L1.02633 79.7307Z" fill="#201C26"/>
<path fill-rule="evenodd" clip-rule="evenodd" d="M4.87816 82.1555L4.75787 83.6149C4.75787 83.6149 7.73434 84.2195 8.35436 83.6149C8.97523 83.0094 8.47718 82.0371 7.487 82.0371C6.49598 82.0371 4.87816 82.1555 4.87816 82.1555Z" fill="white"/>
<path fill-rule="evenodd" clip-rule="evenodd" d="M12.7022 82.0379C13.7 80.9471 15.4364 79.2459 19.4022 79.4869C23.3756 79.7313 25.4907 81.3049 25.4907 83.1361C25.4907 84.9507 25.6084 87.3774 23.2503 88.1021C20.8947 88.8342 18.5323 88.8342 16.9204 88.5957C15.306 88.3497 12.7022 86.8904 12.3312 84.9515C11.9577 83.0094 12.7022 82.0379 12.7022 82.0379Z" fill="#241C24"/>
<path fill-rule="evenodd" clip-rule="evenodd" d="M16.4275 84.3428C16.2005 82.775 17.5405 81.7927 18.6577 81.7927C19.7733 81.7927 21.6308 81.9161 21.508 83.9809C21.3868 86.0423 21.2674 85.9206 20.151 86.2866C19.033 86.6502 16.7976 87.018 16.4275 84.3428Z" fill="white"/>
<path fill-rule="evenodd" clip-rule="evenodd" d="M38.763 83.1365C38.1455 82.0382 36.7843 79.971 34.6693 79.8542C32.5602 79.7316 29.7031 79.4873 28.3394 79.971C26.9706 80.4613 25.8627 81.6705 25.6111 82.7629C25.3647 83.8587 25.1089 86.2862 26.7267 87.3778C28.3386 88.4702 30.9517 89.3225 33.4301 88.8346C35.9076 88.3501 38.2683 87.3778 38.641 85.3139C37.4026 85.3139 34.4236 85.3139 34.4236 85.3139C34.4236 85.3139 33.3013 86.7724 31.941 86.6498C31.941 86.6498 30.6916 87.0175 29.826 85.8058C28.962 84.5859 29.0831 83.4951 29.9496 82.401C30.8263 81.3053 33.1793 81.6697 33.4292 82.1567C33.6757 82.6437 34.0484 83.37 34.0484 83.37L38.763 83.1365Z" fill="#241C24"/>
<path fill-rule="evenodd" clip-rule="evenodd" d="M38.3946 79.9711H42.2443V82.8881H46.0856V79.731H50.0616V88.4703H46.3346V85.5575H42.3688V88.4703H38.2692L38.3946 79.9711Z" fill="#241C24"/>
<path fill-rule="evenodd" clip-rule="evenodd" d="M51.3067 79.731L62.3528 79.8544V82.0384H55.652V82.8881H61.2381V85.314H55.4004V86.4114H62.5993V88.7138H51.4287L51.3067 79.731Z" fill="#241C24"/>
<path fill-rule="evenodd" clip-rule="evenodd" d="M68.0618 79.731H71.9107C71.9107 79.731 71.665 80.3397 72.1665 80.2196C72.6552 80.0979 76.0069 79.9703 77.0039 81.1903C77.994 82.4011 78.3693 83.9797 77.3723 85.073C76.3754 86.1662 75.508 86.6499 74.8939 86.6499C74.2671 86.6499 72.1665 86.7717 72.1665 86.7717V88.7138H68.0618V86.6499C68.0618 86.6499 65.4538 86.5282 64.5855 86.2863C63.7207 86.042 62.1029 85.073 62.1029 83.496C62.1029 81.9166 62.972 80.5799 64.2179 80.4614C65.4538 80.3405 67.8136 80.3405 67.8136 80.3405L68.0618 79.731Z" fill="#241C24"/>
<path fill-rule="evenodd" clip-rule="evenodd" d="M68.0611 82.4015L67.9375 84.2211C67.9375 84.2211 65.9529 84.4654 65.9529 83.7415C65.9529 83.0102 66.3273 82.2814 68.0611 82.4015Z" fill="white"/>
<path fill-rule="evenodd" clip-rule="evenodd" d="M72.1652 82.5214L72.2829 84.2209C72.2829 84.2209 73.4002 84.7088 74.0253 83.8582C74.6385 83.0092 73.5221 82.4005 72.1652 82.5214Z" fill="white"/>
<path fill-rule="evenodd" clip-rule="evenodd" d="M79.9767 82.4009V88.8346H83.9476V82.4009H87.5449L88.2962 81.4327L87.1798 80.0977H76.7529C76.7554 80.0977 76.254 82.0382 77.3704 82.1566C78.4868 82.2808 79.9767 82.4009 79.9767 82.4009Z" fill="#241C24"/>
<path fill-rule="evenodd" clip-rule="evenodd" d="M91.5189 80.0977V82.5219C91.5189 82.5219 96.2402 82.2808 97.1101 82.7629C97.9784 83.2499 98.8466 83.9804 98.9702 84.8251C99.0939 85.6799 98.8466 87.0174 97.9784 87.7421C97.1102 88.4701 96.12 88.9546 95.1188 88.9546C94.1286 88.9546 87.9258 88.9546 87.9258 88.9546V80.2194L91.5189 80.0977Z" fill="#241C24"/>
<path fill-rule="evenodd" clip-rule="evenodd" d="M91.8982 85.0729V86.5281C91.8982 86.5281 93.7574 86.5281 94.3766 86.5281C94.9941 86.5281 95.8674 85.1938 94.7476 84.952C93.6329 84.7085 91.8982 85.0729 91.8982 85.0729Z" fill="white"/>
<path fill-rule="evenodd" clip-rule="evenodd" d="M5.16945 95.6822V94.2692H1.49335V95.6822H1.0639V92.6509H1.49335V93.9653H5.16945V92.6509H5.59381V95.6822H5.16945Z" fill="#201C26"/>
<path fill-rule="evenodd" clip-rule="evenodd" d="M7.03879 95.6822V92.6509H10.7005V92.9532H7.46146V93.9653H10.6149V94.2651H7.46146V95.3782H10.7005V95.6822H7.03879Z" fill="#201C26"/>
<path fill-rule="evenodd" clip-rule="evenodd" d="M18.1326 94.3451V93.9675C18.1326 93.2469 17.7667 92.8842 16.6071 92.8842H15.345V92.615H14.9148V92.8842H13.6679C12.5007 92.8842 12.1348 93.1865 12.1348 93.9675V94.3451C12.1348 95.1162 12.5482 95.3829 13.6679 95.3829H14.9148V95.6811H15.345V95.3829H16.6071C17.7201 95.3829 18.1326 95.1303 18.1326 94.3451ZM17.7015 94.3451C17.7015 94.929 17.4126 95.0831 16.6071 95.0831H15.345V93.1873H16.6071C17.372 93.1873 17.7015 93.3629 17.7015 93.9509V94.3451ZM14.9148 95.0831H13.6679C12.8616 95.0831 12.5541 94.929 12.5541 94.341V93.9377C12.5541 93.3579 12.8912 93.1873 13.6679 93.1873H14.9148V95.0831Z" fill="#201C26"/>
<path fill-rule="evenodd" clip-rule="evenodd" d="M21.4037 92.9532V95.6822H21.8315V92.9532H23.8533V92.6509H19.3971V92.9532H21.4037Z" fill="#201C26"/>
<path fill-rule="evenodd" clip-rule="evenodd" d="M29.2496 95.6823V92.6519H26.4629C25.4337 92.6519 25.0094 92.9011 25.0094 93.5902C25.0094 94.16 25.4337 94.4259 26.2452 94.4259L24.8383 95.6831H25.4337L26.7576 94.4259H28.8184V95.6831H29.2496V95.6823ZM28.8184 94.1261H26.3282C25.6658 94.1261 25.4346 94.0416 25.4346 93.5902C25.4346 93.1198 25.6768 92.9533 26.2858 92.9533H28.8184V94.1261Z" fill="#201C26"/>
<path fill-rule="evenodd" clip-rule="evenodd" d="M34.9108 95.6822V94.2692H31.2372V95.6822H30.8094V92.6509H31.2372V93.9653H34.9108V92.6509H35.3402V95.6822H34.9108Z" fill="#201C26"/>
<path fill-rule="evenodd" clip-rule="evenodd" d="M41.4185 95.6823L39.2755 92.6519H38.6173L36.476 95.6823H36.9487L37.4806 94.922H40.3893L40.9162 95.6823H41.4185ZM40.1657 94.6123H37.7127L38.9358 92.8689L40.1657 94.6123Z" fill="#201C26"/>
<path fill-rule="evenodd" clip-rule="evenodd" d="M46.3048 95.6822V94.4249H44.2448L42.9141 95.6822H42.3271L43.7239 94.4249C42.9141 94.4249 42.4949 94.1591 42.4949 93.5892C42.4949 92.9002 42.9141 92.6509 43.9433 92.6509H46.7359V95.6813H46.3048V95.6822ZM46.3048 92.9532H43.773C43.1657 92.9532 42.9141 93.1188 42.9141 93.5901C42.9141 94.0423 43.1479 94.1259 43.8137 94.1259H46.3048V92.9532Z" fill="#201C26"/>
<path fill-rule="evenodd" clip-rule="evenodd" d="M54.6727 95.6822H55.424L52.4323 94.0936L55.3571 92.6509H54.599L51.9876 93.9512H51.2931V92.6509H50.8636V95.6822H51.2931V94.256H52.0054L54.6727 95.6822Z" fill="#201C26"/>
<path fill-rule="evenodd" clip-rule="evenodd" d="M60.9907 94.6425C60.9907 95.2355 60.7883 95.3788 59.9192 95.3788H58.1091C57.3036 95.3788 57.0029 95.2264 57.0029 94.6425V93.6751C57.0029 93.0854 57.3324 92.9256 58.1091 92.9256H59.9192C60.7442 92.9256 60.9907 93.0755 60.9907 93.6751V94.6425ZM61.4151 94.6425V93.6942C61.4151 92.8129 60.9221 92.615 59.9192 92.615H58.1133C56.9385 92.615 56.5734 92.9247 56.5734 93.6942V94.6425C56.5734 95.421 56.9902 95.6819 58.1133 95.6819H59.9192C61.0186 95.6819 61.4151 95.5055 61.4151 94.6425Z" fill="#201C26"/>
<path fill-rule="evenodd" clip-rule="evenodd" d="M67.922 92.6509H68.8427V95.6822H68.4133V92.8969H68.1752L65.9425 95.6822H65.7231L63.4937 92.8969H63.2523V95.6822H62.8262V92.6509H63.741L65.8383 95.2357L67.922 92.6509Z" fill="#201C26"/>
<path fill-rule="evenodd" clip-rule="evenodd" d="M70.8093 95.6822V92.9532H74.4736V95.6822H74.9064V92.6509H70.3748V95.6822H70.8093Z" fill="#201C26"/>
<path fill-rule="evenodd" clip-rule="evenodd" d="M80.4837 95.6823L79.9577 94.922H77.049L76.5094 95.6823H76.0368L78.1831 92.6519H78.8337L80.9766 95.6823H80.4837ZM78.5075 92.868L77.276 94.6114H79.7332L78.5075 92.868Z" fill="#201C26"/>
<path fill-rule="evenodd" clip-rule="evenodd" d="M86.734 95.6822V92.6509H86.3079V93.9653H82.6394V92.6509H82.2049V95.6822H82.6394V94.2692H86.3079V95.6822H86.734Z" fill="#201C26"/>
<path fill-rule="evenodd" clip-rule="evenodd" d="M92.7357 95.6822V92.6509H91.9005L88.631 95.4461H88.5937V92.6509H88.1711V95.6822H88.8665L92.1444 92.8853H92.3028V95.6822H92.7357Z" fill="#201C26"/>
<path fill-rule="evenodd" clip-rule="evenodd" d="M97.9091 94.1261H95.4129C94.7472 94.1261 94.5235 94.0416 94.5235 93.5902C94.5235 93.1198 94.759 92.9533 95.3663 92.9533H97.9091V94.1261ZM98.3301 95.6823V92.6519H95.5459C94.5235 92.6519 94.0941 92.9011 94.0941 93.5902C94.0941 94.16 94.5235 94.4259 95.3325 94.4259L93.9205 95.6831H94.5235L95.8407 94.4259H97.9091V95.6831H98.3301V95.6823Z" fill="#201C26"/>
</svg>
