<svg width="117" height="62" viewBox="0 0 117 62" fill="none" xmlns="http://www.w3.org/2000/svg">
<path fill-rule="evenodd" clip-rule="evenodd" d="M58.5464 0.0871582H61.5728L64.4732 0.212567C134.342 5.63644 134.34 56.3638 64.4732 61.7876L61.5728 61.913H55.52C37.954 61.6831 7.08861 54.7732 0.791951 35.7029L0.413646 34.198L0.161444 32.5677C-1.08065 11.9235 30.6128 1.93691 46.819 0.714192L52.6196 0.212567L55.52 0.0871582H58.5464ZM58.5464 2.72071H61.3206L64.0949 2.84612C129.84 7.71403 129.84 54.3844 64.0949 59.1541L61.3206 59.2795H55.7722C39.606 59.2189 10.1697 52.8816 4.19669 35.3267L3.81839 33.9472L3.69228 32.4423C2.30307 13.3783 32.7565 4.49314 47.4495 3.22234L50.2237 2.97153L52.9979 2.84612L55.7722 2.72071H58.5464ZM58.5464 6.23212L61.1945 6.35753H63.8427C125.101 10.8597 125.12 51.2262 63.8427 55.6427L61.1945 55.7681H55.8983C41.7434 55.6615 13.2676 50.317 7.85363 34.825L7.47532 33.5709L7.34922 32.3169C6.0735 15.1047 35.3816 7.80389 48.2061 6.73375L50.7281 6.60835L53.2501 6.35753H55.8983L58.5464 6.23212ZM58.5464 5.10346H61.1945L63.8427 5.22887C126.452 9.63903 126.454 52.4218 63.8427 56.7713L61.1945 56.8967H55.8983C41.2222 56.9197 12.1831 51.0757 6.84482 34.9504L6.46651 33.6964L6.21431 32.3169C5.4556 14.3355 34.2088 6.78601 47.9539 5.60509L50.602 5.35427L53.2501 5.22887L55.8983 5.10346H58.5464ZM16.5546 41.4716V20.654H22.7336L30.5519 32.9439V20.654H36.2264V41.4716H30.1736L22.2292 28.9309V41.4716H16.5546ZM40.1356 41.4716V20.654H46.0624V36.4553H52.3674V41.4716H40.1356ZM53.2501 41.4716L56.4027 20.654H62.3294L65.9864 33.3201L69.7694 20.654H75.6962L78.8487 41.4716H73.0481L71.5348 29.4325L67.8779 41.4716H64.0949L60.564 29.4325L58.9247 41.4716H53.2501ZM81.1185 41.4716V20.654H87.0453V29.4325L93.4765 20.654H100.412L92.3416 30.6866L100.664 41.4716H93.2243L87.0453 32.5677V41.4716" fill="#004696"/>
</svg>
