<svg width="159" height="35" viewBox="0 0 159 35" fill="none" xmlns="http://www.w3.org/2000/svg">
<path d="M159 13.0441C157.183 10.0054 154.23 8.40011 150.198 8.40011C144.746 8.40011 140.488 11.8974 140.488 17.5734C140.488 23.1921 144.633 26.6894 150.198 26.6894C154.23 26.6894 157.239 25.0841 159 22.0454L155.933 20.2681C154.627 22.1601 152.867 23.1921 150.084 23.1921C146.677 23.1921 144.349 20.8988 144.349 17.5734C144.349 14.1334 146.62 11.9548 150.084 11.9548C152.867 11.9548 154.57 12.9868 155.933 14.8788L159 13.0441ZM122.998 17.5161C122.998 13.9041 124.928 11.7254 128.619 11.7254C132.31 11.7254 134.241 13.9041 134.241 17.5161C134.241 21.1281 132.31 23.3068 128.619 23.3068C124.928 23.3068 122.998 21.0708 122.998 17.5161ZM112.663 8.74411V26.1734H116.524V18.8348H119.193C119.818 23.8228 123.793 26.6321 128.619 26.6321C133.9 26.6321 138.103 23.3068 138.103 17.5161C138.103 11.6681 133.844 8.34277 128.619 8.34277C124.076 8.34277 120.272 10.8081 119.363 15.2801H116.581V8.74411H112.663ZM95.0022 8.74411L92.674 21.2428C92.5036 22.1601 91.879 22.6188 90.9704 22.6188H89.0965V26.2308H91.1976C94.0368 26.2308 95.9676 24.8548 96.5354 21.7588L98.2958 12.2988H104.94V26.2308H108.858V8.74411H95.0022ZM87.8472 17.5161C87.8472 12.0121 83.3611 8.34277 78.0801 8.34277C72.799 8.34277 68.3129 12.0121 68.3129 17.5161C68.3129 23.0201 72.799 26.6321 78.0801 26.6321C83.3611 26.6321 87.8472 22.9628 87.8472 17.5161ZM72.2879 17.5161C72.2879 13.9041 74.8433 11.7254 78.1368 11.7254C81.4304 11.7254 83.9858 13.9041 83.9858 17.5161C83.9858 21.1281 81.4304 23.3068 78.1368 23.3068C74.8433 23.3068 72.2879 21.0708 72.2879 17.5161ZM48.3243 8.74411V26.1734H52.2426V12.2414H61.5554V26.1734H65.4736V8.74411H48.3243Z" fill="#1A171B"/>
<path d="M33.9015 15.3372L21.579 17.2292C21.2951 17.2866 21.0679 16.9999 21.0679 16.7132L21.4086 10.0626C21.4654 9.25991 21.9197 8.80125 22.5443 8.74391L30.4376 7.53991C31.0622 7.42525 31.6301 7.71191 31.914 8.45725L34.1854 14.7066C34.3558 14.9932 34.1854 15.2799 33.9015 15.3372ZM24.9293 32.8812L19.3076 21.7012C19.194 21.4146 19.3643 21.1279 19.6483 21.0706L26.0083 19.3506C26.8033 19.1212 27.3143 19.4652 27.6551 20.0386L31.2326 27.2052C31.5165 27.7786 31.4597 28.4093 30.8351 28.9252L25.6676 33.0532C25.3836 33.2252 25.0429 33.1679 24.9293 32.8812ZM5.45184 29.7279L14.3104 20.8986C14.5376 20.6692 14.8783 20.7839 14.9918 21.0132L18.5693 26.5746C19.0236 27.2626 18.8533 27.8932 18.4558 28.3519L12.7772 33.9706C12.3229 34.4292 11.6983 34.5439 11.0168 34.0853L5.56541 30.4159C5.28148 30.2439 5.2247 29.8999 5.45184 29.7279ZM2.49898 10.0626L13.5154 15.8532C13.7993 15.9679 13.7993 16.3119 13.629 16.5412L9.48362 21.7012C8.97255 22.3319 8.34791 22.3892 7.78005 22.1026L0.738623 18.4332C0.170766 18.1466 -0.113162 17.5732 0.11398 16.7706L1.87434 10.3492C1.93112 10.1199 2.21505 9.94791 2.49898 10.0626ZM20.1026 1.17591L18.0583 13.5599C18.0015 13.8466 17.7176 13.9612 17.4336 13.9039L11.3008 11.4959C10.5626 11.2092 10.2786 10.6359 10.3922 10.0052L11.6983 2.09325C11.8118 1.46258 12.2093 1.00391 13.0611 0.946579L19.6483 0.659912C19.8754 0.659912 20.1593 0.889246 20.1026 1.17591Z" fill="#FFCB08"/>
</svg>
