<svg width="146" height="56" viewBox="0 0 146 56" fill="none" xmlns="http://www.w3.org/2000/svg">
<path d="M137.237 16.7467C137.237 16.7467 130.544 23.7537 129.388 24.9648V16.7467H124.003V39.2115H129.388V31.6327C129.556 31.4636 130.652 30.3542 131.1 29.9026C131.606 30.6113 137.749 39.2115 137.749 39.2115H144.665C144.665 39.2115 135.271 26.5618 134.889 26.0458C135.342 25.5991 144.323 16.7467 144.323 16.7467H137.237ZM101.87 24.2161L101.838 24.6344H107.159L107.239 24.348C107.586 23.1008 108.229 20.7814 111.78 20.7814C112.65 20.7814 115.475 21.1147 116.475 25.1397H110.381V29.6544H116.713C116.448 31.6004 115.456 35.1768 111.748 35.1768C109.389 35.1768 107.748 33.7663 107.246 31.3082L107.181 30.9954H101.786L101.876 31.4567C102.897 36.7445 106.529 39.7774 111.842 39.7774C118.331 39.7774 122.361 35.2686 122.361 28.0094C122.361 20.8235 118.207 16.1808 111.78 16.1808C105.391 16.1808 102.163 20.3455 101.87 24.2161H101.87ZM96.5995 16.7467C96.5995 16.7467 92.8011 26.7906 92.2411 28.2713C91.5389 26.8414 86.5797 16.7467 86.5797 16.7467H80.4737C80.4737 16.7467 89.4522 33.5494 89.6481 33.9169C88.9986 35.0604 88.7221 35.2364 87.7285 35.2364C87.2113 35.2364 86.4414 35.0663 86.0983 34.9138L85.5383 34.6646V39.4226L85.8387 39.4969C86.3499 39.623 87.7981 39.7774 88.7599 39.7774C91.1132 39.7774 92.7782 39.0991 94.3228 35.6322C94.3228 35.6312 102.683 16.7467 102.683 16.7467H96.5995ZM64.3391 19.1789C62.3528 21.2647 61.3035 24.3181 61.3035 28.0098C61.3035 35.268 65.3108 39.7778 71.761 39.7778C77.0713 39.7778 80.7026 36.7449 81.7241 31.4571L81.8136 30.9948H76.4208L76.3561 31.3076C75.8509 33.7667 74.2097 35.1762 71.8505 35.1762C68.0421 35.1762 66.6844 31.505 66.6844 28.0684C66.6844 22.6956 69.354 20.7809 71.8505 20.7809C75.3754 20.7809 76.017 23.1012 76.3621 24.3465L76.4427 24.6338H81.7619L81.7301 24.2155C81.4347 20.3459 78.2071 16.1802 71.8216 16.1802C68.793 16.1802 66.206 17.2172 64.3391 19.1789Z" fill="#717073"/>
<path d="M37.5886 31.9314C37.3628 32.1533 29.741 39.5357 29.2069 40.0635C30.2443 40.7965 34.6982 43.5177 40.654 41.5101C41.1066 41.3507 41.9062 41.1504 42.3747 40.9295L42.8501 40.4281C44.2894 38.7841 46.1792 36.5673 47.2414 31.9314C45.5237 31.217 43.5096 30.7478 41.6675 30.7478C40.0811 30.7478 38.623 31.0948 37.5886 31.9314Z" fill="url(#paint0_linear)"/>
<path d="M24.548 9.70103C24.548 9.70103 22.521 10.2376 22.518 10.2386L21.3662 10.6462C19.6594 11.3235 18.1367 12.3156 16.7074 13.4377C23.6847 11.3968 28.6409 15.3925 28.7185 15.457C28.7185 15.457 37.3479 22.2705 37.5886 22.5071C39.72 24.6036 44.6663 24.7796 46.9738 23.0231C46.4168 20.6656 44.2028 16.5253 41.8257 14.5275L41.1662 13.9332C39.3749 12.4573 37.873 11.4995 35.5695 10.5856L34.3501 10.1653C34.3501 10.1653 32.4115 9.67366 32.4105 9.67366C31.1444 9.41758 29.7091 9.30615 28.4102 9.30615C27.1142 9.30615 25.8152 9.43811 24.548 9.70103Z" fill="url(#paint1_linear)"/>
<path d="M13.9323 35.7996C13.9323 37.0243 14.1173 38.3702 14.5908 39.8021C14.7638 40.3103 14.9797 40.8244 15.2303 41.3503L15.2601 41.4168C17.0365 43.1175 19.0904 44.4458 21.3741 45.3528L22.5299 45.7584L24.5559 46.2989C25.8231 46.5599 27.125 46.6928 28.424 46.6928C29.721 46.6928 31.021 46.6078 32.2861 46.3478C32.2861 46.3478 34.3559 45.8356 34.3589 45.8347L35.7285 45.3528C37.4343 44.6745 39.1431 43.6843 40.5723 42.5574C33.5941 44.5992 28.1992 40.6075 28.1405 40.5625L28.1286 40.5527C28.1286 40.5527 16.7411 29.3643 16.1394 28.7739C15.5904 29.5285 13.9323 32.1177 13.9323 35.7996" fill="url(#paint2_linear)"/>
<path d="M16.1743 14.4865C15.7287 14.6468 15.2662 14.8354 14.8037 15.0533L14.7639 15.068C13.0303 16.8156 11.6806 18.8379 10.7595 21.0791L10.3438 22.2109L9.79476 24.2068C9.5292 25.4471 9.39691 26.7236 9.39691 28.0011C9.39691 29.2786 9.5292 30.559 9.79476 31.8013L10.3438 33.7942L10.7595 34.928C11.4508 36.6092 12.4584 38.1066 13.6052 39.5072C13.1834 38.1193 12.9885 36.7998 12.9885 35.5985C12.9885 30.8688 15.5924 27.7704 15.6282 27.7294L15.6422 27.7138C15.6422 27.7138 27.0306 16.5244 27.6314 15.935C26.8615 15.3945 24.2238 13.7632 20.489 13.7622C19.1761 13.7622 17.7269 13.9645 16.1743 14.4865" fill="url(#paint3_linear)"/>
<path d="M50.7379 26.5211V26.397C51.7296 24.2985 53.5935 24.2565 55.6464 26.1683C55.6464 22.9683 54.9472 20.428 53.3796 18.9931C51.1626 17.0588 48.8432 18.3187 46.9474 15.6875C46.7236 13.3926 48.3319 12.42 51.095 13.0641C49.4459 10.3196 47.5392 8.46543 45.4664 7.99041C44.9999 7.88778 44.5782 7.86138 44.1734 7.90732C43.3906 7.94544 42.7143 8.17513 42.0588 8.36475C41.7197 8.46542 41.3775 8.57001 41.0403 8.63648C40.8076 8.67459 40.5748 8.71565 40.3192 8.71565C39.6996 8.7567 39.0163 8.65114 38.2116 8.28265C36.8798 6.41775 37.7292 4.8451 40.3192 4.03385C40.3849 4.02018 40.4306 3.99963 40.4704 3.97227C40.4306 3.95466 40.3849 3.93122 40.3192 3.91656C38.9039 3.12094 37.5273 2.55893 36.2781 2.29014C35.0696 2.0409 33.9695 2.02038 32.9998 2.31069C30.7559 3.05938 30.2685 4.89007 28.4683 5.74042C28.0863 5.93199 27.6039 6.0747 27.029 6.13823H26.9027C24.7653 5.15788 24.7225 3.32915 26.667 1.31177C24.1725 1.31177 22.0539 1.73011 20.5312 2.60196C20.0876 2.87172 19.6857 3.18352 19.3436 3.53734C17.5682 5.5381 18.4753 7.61216 16.5924 9.38128C16.4244 9.54939 16.2185 9.70187 16.0006 9.86119H15.8972H15.8733C15.4934 9.88367 15.1562 9.86119 14.8369 9.80059C13.3331 9.44481 12.785 7.99042 13.3331 5.78538C13.1262 5.90853 12.9133 6.03364 12.7005 6.15875C10.2457 7.67765 8.57179 9.4018 8.12819 11.2735C7.53539 14.1491 9.84192 15.4999 8.40469 18.4712C6.47711 19.823 4.82703 18.9501 4.01939 16.2701C2.39219 19.0557 1.71186 21.6116 2.32853 23.6095C3.2784 26.3364 5.86343 26.397 6.24238 29.4954V29.6225C5.27063 31.722 3.38681 31.7826 1.3349 29.8727C1.3349 33.0532 2.05202 35.613 3.61856 37.0488C5.83657 38.9597 8.15703 37.7037 10.0558 40.3339C10.2776 42.6269 8.67026 43.5985 5.90421 42.9544C7.55926 45.7204 9.46198 47.5932 11.5358 48.0525C11.9585 48.1376 12.3404 48.1561 12.7005 48.1561C13.4842 48.1141 14.1596 47.9069 14.8369 47.6997C15.1761 47.5932 15.5153 47.4915 15.8733 47.4045H15.8972C16.1289 47.3664 16.3637 47.3205 16.5924 47.3048C17.2658 47.2657 17.9789 47.3644 18.8144 47.7505C20.1383 49.6301 19.265 51.2233 16.5924 52.0277C16.5924 52.0277 16.5735 52.0462 16.5517 52.0462C16.5736 52.0697 16.5924 52.0697 16.5924 52.0834C17.9909 52.8575 19.3048 53.3941 20.5312 53.6893C21.8192 53.9805 22.9849 54.003 24.0223 53.6893C26.2433 52.9621 26.7366 51.1519 28.4683 50.2976C28.89 50.0885 29.3764 49.9448 29.992 49.8637H30.1183C32.2588 50.8401 32.3025 52.6728 30.3531 54.6882C32.7422 54.6882 34.7772 54.3138 36.2781 53.5045C36.8082 53.2103 37.2757 52.8761 37.6775 52.4607C39.43 50.4843 38.5657 48.4494 40.3192 46.7008C40.5331 46.4926 40.7668 46.304 41.0403 46.1153C41.0204 46.1368 41.0005 46.1368 41.0005 46.1368C41.0005 46.1153 41.0204 46.1153 41.0403 46.0977C41.0403 46.0977 41.0612 46.0772 41.0811 46.0772C41.0682 46.0889 41.0562 46.1016 41.0403 46.1153C41.3994 46.0977 41.7445 46.1153 42.0588 46.1583C43.6413 46.4515 44.237 47.9284 43.686 50.197C43.8551 50.111 44.0242 50.0064 44.1734 49.8999C46.7157 48.3624 48.4294 46.5952 48.876 44.6824C49.4678 41.7903 47.1563 40.462 48.5776 37.4838C48.5776 37.5063 48.5547 37.5297 48.5547 37.5463C50.4823 36.2161 52.1304 37.0909 52.938 39.7524C54.5672 36.9853 55.2465 34.4274 54.6279 32.4306C53.6969 29.7056 51.095 29.6225 50.7379 26.5211H50.7379ZM44.1734 14.5606C47.3711 18.1614 49.3176 22.8637 49.3176 28C49.3176 33.1382 47.3711 37.8396 44.1734 41.4364C43.5189 42.189 42.8177 42.8713 42.0588 43.5154C41.7197 43.7861 41.3775 44.0579 41.0403 44.3266C40.8076 44.4948 40.5748 44.6619 40.3192 44.829C39.073 45.6823 37.7193 46.4085 36.2781 46.992C33.8651 47.9479 31.2194 48.4709 28.4683 48.4709C25.6744 48.4709 22.9849 47.9284 20.5312 46.9285C19.1556 46.346 17.8218 45.6403 16.5924 44.787C16.3637 44.6199 16.1289 44.4537 15.8972 44.2876L15.8733 44.267C15.5153 43.9953 15.1761 43.7295 14.8369 43.4323C14.0741 42.7902 13.3559 42.0825 12.7005 41.3328C9.56542 37.7575 7.66369 33.0757 7.66369 28C7.66369 22.9018 9.56542 18.2464 12.7005 14.6437C13.3559 13.8959 14.0741 13.1902 14.8369 12.5461C15.1761 12.2529 15.5153 11.9812 15.8733 11.7124C15.8733 11.7124 15.8972 11.7124 15.8972 11.6919C16.1289 11.5228 16.3637 11.3595 16.5924 11.1944C17.8218 10.3792 19.1556 9.652 20.5312 9.09195C22.9849 8.09401 25.6744 7.53102 28.4683 7.53102C31.2194 7.53102 33.8651 8.07055 36.2781 9.02744C37.7193 9.59336 39.073 10.3196 40.3192 11.1699C40.5748 11.3185 40.8076 11.5052 41.0403 11.6743C41.3775 11.9225 41.7197 12.1874 42.0588 12.463L44.1734 14.5606" fill="#C6C6C7"/>
<defs>
<linearGradient id="paint0_linear" x1="48.2188" y1="28.3336" x2="23.167" y2="50.2479" gradientUnits="userSpaceOnUse">
<stop stop-color="#D4D4D5"/>
<stop offset="0.869568" stop-color="#717073"/>
<stop offset="1" stop-color="#717073"/>
</linearGradient>
<linearGradient id="paint1_linear" x1="26.6484" y1="11.433" x2="46.7875" y2="34.1366" gradientUnits="userSpaceOnUse">
<stop stop-color="#FFF799"/>
<stop offset="1" stop-color="#FFF200"/>
</linearGradient>
<linearGradient id="paint2_linear" x1="33.997" y1="43.5721" x2="11.2269" y2="23.3199" gradientUnits="userSpaceOnUse">
<stop stop-color="#AAA9AB"/>
<stop offset="1" stop-color="#717073"/>
</linearGradient>
<linearGradient id="paint3_linear" x1="9.14251" y1="35.1149" x2="26.2853" y2="17.8506" gradientUnits="userSpaceOnUse">
<stop stop-color="#C5CA74"/>
<stop offset="0.953415" stop-color="#9FA617"/>
<stop offset="1" stop-color="#9FA617"/>
</linearGradient>
</defs>
</svg>
