<svg width="50" height="50" viewBox="0 0 50 50" fill="none" xmlns="http://www.w3.org/2000/svg">
<path d="M44.271 41.6653H35.5626C34.7001 41.6653 34.0001 40.9653 34.0001 40.1028C34.0001 39.2404 34.7001 38.5404 35.5626 38.5404H43.1751L46.2064 30.2073H3.79151L6.82279 38.5404H14.4374C15.2999 38.5404 15.9999 39.2404 15.9999 40.1028C15.9999 40.9653 15.2999 41.6653 14.4374 41.6653H5.72903C5.07277 41.6653 4.48527 41.2549 4.26027 40.6362L0.093572 29.1782C-0.0793459 28.699 -0.0105955 28.1657 0.283157 27.747C0.574825 27.3303 1.05191 27.0824 1.56233 27.0824H48.4377C48.9481 27.0824 49.4252 27.3303 49.7168 27.7491C50.0106 28.1657 50.0793 28.7011 49.9064 29.1803L45.7397 40.6382C45.5147 41.2549 44.9272 41.6653 44.271 41.6653Z" fill="#00A8FF"/>
<path d="M33.8563 49.9983C33.7771 49.9983 33.698 49.9921 33.6167 49.9796C32.7646 49.8483 32.1792 49.0505 32.3105 48.1984L34.1167 36.4571H15.8833L17.6895 48.1984C17.8208 49.0525 17.2354 49.8483 16.3833 49.9796C15.5312 50.1192 14.7312 49.5275 14.602 48.6734L12.5187 35.1322C12.4499 34.6822 12.5791 34.2218 12.877 33.876C13.1749 33.5301 13.6062 33.3322 14.0624 33.3322H35.9376C36.3938 33.3322 36.8272 33.5322 37.123 33.878C37.4188 34.2239 37.5501 34.6822 37.4813 35.1343L35.398 48.6755C35.2813 49.4463 34.6147 49.9983 33.8563 49.9983Z" fill="#00A8FF"/>
<path d="M46.8752 29.6865C46.0126 29.6865 45.3126 28.9865 45.3126 28.1241C45.3126 24.0013 43.1085 20.0993 39.5605 17.939C38.823 17.489 38.5897 16.5286 39.0397 15.7911C39.4897 15.0537 40.4501 14.8203 41.1876 15.2703C45.6585 17.9952 48.4356 22.9201 48.4356 28.1241C48.4377 28.9865 47.7377 29.6865 46.8752 29.6865Z" fill="#00A8FF"/>
<path d="M38.5418 18.7494C40.2677 18.7494 41.6668 17.3503 41.6668 15.6245C41.6668 13.8986 40.2677 12.4996 38.5418 12.4996C36.8159 12.4996 35.4167 13.8986 35.4167 15.6245C35.4167 17.3503 36.8159 18.7494 38.5418 18.7494Z" fill="#00A8FF"/>
<path d="M25 16.6661C20.4041 16.6661 16.6666 12.9287 16.6666 8.33306C16.6666 3.73738 20.4041 0 25 0C29.5959 0 33.3334 3.73738 33.3334 8.33306C33.3334 12.9287 29.5959 16.6661 25 16.6661ZM25 3.1249C22.1271 3.1249 19.7916 5.46232 19.7916 8.33306C19.7916 11.2038 22.1271 13.5412 25 13.5412C27.8729 13.5412 30.2084 11.2038 30.2084 8.33306C30.2084 5.46232 27.8729 3.1249 25 3.1249Z" fill="#00A8FF"/>
<path d="M40.6251 30.2073C39.7626 30.2073 39.0626 29.5074 39.0626 28.6449C39.0626 24.9117 36.0251 21.8743 32.2917 21.8743H17.7083C13.9749 21.8743 10.9374 24.9117 10.9374 28.6449C10.9374 29.5074 10.2374 30.2073 9.37489 30.2073C8.51238 30.2073 7.81238 29.5074 7.81238 28.6449C7.81238 23.1888 12.252 18.7494 17.7083 18.7494H32.2917C37.748 18.7494 42.1876 23.1888 42.1876 28.6449C42.1876 29.5074 41.4876 30.2073 40.6251 30.2073Z" fill="#00A8FF"/>
</svg>
