<svg width="50" height="50" viewBox="0 0 50 50" fill="none" xmlns="http://www.w3.org/2000/svg">
<path d="M32.9417 10.0396C32.2542 9.32917 32.2917 8.2125 33 7.525L40.2271 0.514583C40.5812 0.172917 41.0333 0 41.4833 0C41.9396 0 42.3958 0.177083 42.7417 0.535417L32.9417 10.0396ZM21.0562 27.8979C20.9104 28.0417 20.8333 28.2354 20.8333 28.4292C20.8333 28.8333 21.1625 29.1667 21.5708 29.1667C21.7562 29.1667 21.9417 29.0979 22.0854 28.9583L23.3 27.7771L22.2729 26.7167L21.0562 27.8979ZM31.3146 14.2479L27.1604 18.275C24.9271 20.4396 23.7875 22.5375 22.7354 25.4646L24.5708 27.3583C27.5271 26.3979 29.6583 25.325 31.8917 23.1583L36.0458 19.1292L31.3146 14.2479ZM43.4312 1.83542L32.7292 12.2146L38.1167 17.7792L48.8208 7.40417C49.6062 6.64167 50 5.63125 50 4.61875C50 1.23542 45.9 -0.560417 43.4312 1.83542ZM18.75 27.0833H10.4167V29.1667H18.75V27.0833ZM37.5 24.2708V28.2146C37.5 36.7708 25 33.3333 25 33.3333C25 33.3333 28.1625 45.8333 19.5042 45.8333H4.16667V4.16667H30.4771L34.7729 0H0V50H21.2271C27.8167 50 41.6667 34.9521 41.6667 29.9708V20.2062L37.5 24.2708Z" fill="#00A8FF"/>
</svg>
