<svg width="50" height="50" viewBox="0 0 50 50" fill="none" xmlns="http://www.w3.org/2000/svg">
<path fill-rule="evenodd" clip-rule="evenodd" d="M45.8333 20.8333H43.75V16.6667H20.8333V43.75H31.25V47.1187C31.25 48.2104 31.5021 49.3229 32.2958 50H21.875C21.0458 50 20.2521 49.6708 19.6646 49.0854C19.0792 48.4979 18.75 47.7042 18.75 46.875V15.625C18.75 14.7958 19.0792 14.0021 19.6646 13.4146C20.2521 12.8292 21.0458 12.5 21.875 12.5H42.7083C43.5375 12.5 44.3312 12.8292 44.9188 13.4146C45.5042 14.0021 45.8333 14.7958 45.8333 15.625V20.8333ZM50 25.5208C50 24.0833 48.8333 22.9167 47.3958 22.9167H35.9375C34.5 22.9167 33.3333 24.0833 33.3333 25.5208V47.3958C33.3333 48.8333 34.5 50 35.9375 50H47.3958C48.8333 50 50 48.8333 50 47.3958V25.5208ZM17.9021 50H4.16667L9.58125 43.75H16.6667V47.5083C16.6667 48.7146 17.3688 49.7792 17.9021 50ZM41.6667 47.9167C40.5146 47.9167 39.5833 46.9833 39.5833 45.8333C39.5833 44.6833 40.5146 43.75 41.6667 43.75C42.8167 43.75 43.7479 44.6833 43.7479 45.8333C43.7479 46.9833 42.8167 47.9167 41.6667 47.9167ZM47.9167 41.6667V29.1167H35.4167V41.6667H47.9167ZM43.75 10.4167H39.5833V4.16667H4.16667V35.4167H16.6667V39.5833H0V0H43.75V10.4167ZM42.7083 25H40.625C40.05 25 39.5833 25.4667 39.5833 26.0417C39.5833 26.6167 40.05 27.0833 40.625 27.0833H42.7083C43.2812 27.0833 43.75 26.6167 43.75 26.0417C43.75 25.4667 43.2812 25 42.7083 25Z" fill="#00A8FF"/>
</svg>
