<svg width="54" height="50" viewBox="0 0 54 50" fill="none" xmlns="http://www.w3.org/2000/svg">
<path d="M26.9989 4.54545C39.4049 4.54545 49.4979 12.7091 49.4979 22.7432C49.4979 33.9182 37.9222 40.8364 27.2014 40.8364C22.8433 40.8364 19.5899 39.9341 17.3153 39.3727C15.0654 40.7659 13.7267 41.7295 7.70368 43.5091C8.90738 40.3886 9.33036 37.2636 9.05812 33.8159C7.1727 31.5432 4.50206 28.3614 4.50206 22.7432C4.49981 12.7091 14.5929 4.54545 26.9989 4.54545ZM26.9989 0C12.739 0 0 9.60454 0 22.7432C0 27.4023 1.66043 31.9773 4.60556 35.5273C4.7293 39.6864 2.3039 45.6545 0.121495 50C5.97575 48.9318 14.2982 46.5727 18.0712 44.2364C21.2616 45.0205 24.3147 45.3795 27.2036 45.3795C43.142 45.3795 54 34.3864 54 22.7409C53.9978 9.53409 41.171 0 26.9989 0ZM29.3028 31.7614C29.3028 33.0477 28.2723 34.0909 26.9989 34.0909C25.7277 34.0909 24.695 33.0477 24.695 31.7614C24.695 30.4773 25.7277 29.4341 26.9989 29.4341C28.2723 29.4341 29.3028 30.4773 29.3028 31.7614ZM31.8699 13.1432C30.7495 11.9955 29.0778 11.3636 27.1676 11.3636C23.1493 11.3636 20.5506 14.2523 20.5506 18.7205H24.2562C24.2562 15.9545 25.7862 14.9727 27.0934 14.9727C28.2611 14.9727 29.5008 15.7568 29.6065 17.2545C29.7235 18.8318 28.8888 19.6318 27.8336 20.6477C25.2304 23.1477 25.181 24.3591 25.1945 27.1068H28.891C28.8685 25.8705 28.9473 24.8659 30.6145 23.05C31.8632 21.6909 33.4156 20 33.4471 17.4205C33.4651 15.6977 32.9229 14.2182 31.8699 13.1432Z" fill="#00A8FF"/>
</svg>
